STARTFONT 2.1
FONT big5.6400.16
SIZE 16 72 72
FONTBOUNDINGBOX 16 16 0 -2
STARTPROPERTIES 4
FONT_DESCENT 2
FONT_ASCENT 14
DEFAULT_CHAR 6
COPYRIGHT "Copyright (c) 1992 AT&T - All rights reserved."
ENDPROPERTIES
CHARS 347
STARTCHAR ch-6
ENCODING 6
SWIDTH 1000 0
DWIDTH 16 0
BBX 16 16 0 -2
BITMAP
1044
10fe
1044
7cfe
1044
11ff
1410
18fe
7092
10fe
1092
11ff
5082
208e
0000
0000
ENDCHAR
STARTCHAR ch-9
ENCODING 9
SWIDTH 1000 0
DWIDTH 16 0
BBX 16 16 0 -2
BITMAP
1040
1040
17ff
7c41
1481
1110
1310
15fe
1910
11fe
7110
11fe
1110
31fe
0000
0000
ENDCHAR
STARTCHAR ch-10
ENCODING 10
SWIDTH 1000 0
DWIDTH 16 0
BBX 16 16 0 -2
BITMAP
1100
11ff
7e49
1649
13f9
1081
190e
1080
31ff
5249
1649
13f9
5041
208e
0000
0000
ENDCHAR
STARTCHAR ch-11
ENCODING 11
SWIDTH 1000 0
DWIDTH 16 0
BBX 16 16 0 -2
BITMAP
103e
13d0
121e
7a10
12ff
1291
12fc
1292
1a9e
7280
12bc
1325
5445
2183
0000
0000
ENDCHAR
STARTCHAR ch-12
ENCODING 12
SWIDTH 1000 0
DWIDTH 16 0
BBX 16 16 0 -2
BITMAP
13fe
1202
13fe
7a48
1248
13fe
1248
1a48
33ff
52a2
1294
1288
54c7
2082
0000
0000
ENDCHAR
STARTCHAR ch-13
ENCODING 13
SWIDTH 1000 0
DWIDTH 16 0
BBX 16 16 0 -2
BITMAP
10fe
1082
1082
7cfe
1000
10fe
1082
14fe
1882
70fe
1082
10fe
3044
1183
0000
0000
ENDCHAR
STARTCHAR ch-14
ENCODING 14
SWIDTH 1000 0
DWIDTH 16 0
BBX 16 16 0 -2
BITMAP
17c1
107f
1048
7c88
1112
153e
1984
1109
337f
5508
112a
112a
5549
2218
0000
0000
ENDCHAR
STARTCHAR ch-15
ENCODING 15
SWIDTH 1000 0
DWIDTH 16 0
BBX 16 16 0 -2
BITMAP
1024
13fe
1020
7dfc
1124
11fc
1524
19fc
7124
17ff
1108
1088
5028
2010
0000
0000
ENDCHAR
STARTCHAR ch-16
ENCODING 16
SWIDTH 1000 0
DWIDTH 16 0
BBX 16 16 0 -2
BITMAP
1020
11ff
1044
7cfc
1010
1024
14fe
1802
31ff
5111
11ff
1111
51ff
2101
0000
0000
ENDCHAR
STARTCHAR ch-18
ENCODING 18
SWIDTH 1000 0
DWIDTH 16 0
BBX 16 16 0 -2
BITMAP
1020
13fe
1088
7c50
13ff
1221
1020
19fe
3040
507e
1042
1042
5082
200c
0000
0000
ENDCHAR
STARTCHAR ch-19
ENCODING 19
SWIDTH 1000 0
DWIDTH 16 0
BBX 16 16 0 -2
BITMAP
084c
0850
0bfe
7e20
09fc
0820
0fff
1840
6884
08fe
0910
0a10
2810
11ff
0000
0000
ENDCHAR
STARTCHAR ch-20
ENCODING 20
SWIDTH 1000 0
DWIDTH 16 0
BBX 16 16 0 -2
BITMAP
13fe
1024
1088
7a50
1220
10d8
1727
19fe
7124
11fc
1020
1024
53fe
2002
0000
0000
ENDCHAR
STARTCHAR ch-21
ENCODING 21
SWIDTH 1000 0
DWIDTH 16 0
BBX 16 16 0 -2
BITMAP
1020
13fe
1020
7c20
17ff
1040
1081
17ff
1801
33fe
5252
1252
1252
37ff
0000
0000
ENDCHAR
STARTCHAR ch-22
ENCODING 22
SWIDTH 1000 0
DWIDTH 16 0
BBX 16 16 0 -2
BITMAP
1080
10fe
1144
7ca8
13f0
1100
11ff
1910
7210
11ff
1010
1111
5111
21ff
0000
0000
ENDCHAR
STARTCHAR ch-23
ENCODING 23
SWIDTH 1000 0
DWIDTH 16 0
BBX 16 16 0 -2
BITMAP
1040
10fe
1182
12fe
7c82
10fe
1480
18fe
1080
30ff
5041
1249
13f9
3003
0000
0000
ENDCHAR
STARTCHAR ch-24
ENCODING 24
SWIDTH 1000 0
DWIDTH 16 0
BBX 16 16 0 -2
BITMAP
0810
09ff
0818
7dff
0830
085e
0c90
091f
1800
28fe
4882
08fe
0882
18fe
0000
0000
ENDCHAR
STARTCHAR ch-26
ENCODING 26
SWIDTH 1000 0
DWIDTH 16 0
BBX 16 16 0 -2
BITMAP
0820
08fc
0824
0848
7c84
09ef
0ca5
094a
18fe
2882
48fa
08fa
2882
110e
0000
0000
ENDCHAR
STARTCHAR ch-27
ENCODING 27
SWIDTH 1000 0
DWIDTH 16 0
BBX 16 16 0 -2
BITMAP
1088
1050
13ff
7c50
11fc
1454
1bff
3054
51fc
10d8
1154
1253
5452
2050
0000
0000
ENDCHAR
STARTCHAR ch-28
ENCODING 28
SWIDTH 1000 0
DWIDTH 16 0
BBX 16 16 0 -2
BITMAP
0810
0856
0892
7ed6
0892
08fe
0a10
0cfe
1844
6828
0810
0828
2847
1182
0000
0000
ENDCHAR
STARTCHAR ch-30
ENCODING 30
SWIDTH 1000 0
DWIDTH 16 0
BBX 16 16 0 -2
BITMAP
1010
11ff
1000
7c7c
1044
107c
1400
19ff
7101
117d
1145
117d
5101
2103
0000
0000
ENDCHAR
STARTCHAR ch-31
ENCODING 31
SWIDTH 1000 0
DWIDTH 16 0
BBX 16 16 0 -2
BITMAP
1080
109f
13e4
7c84
13e4
12a4
13ff
16a4
1be4
7084
13e4
1084
5084
2084
0000
0000
ENDCHAR
STARTCHAR ch-32
ENCODING 32
SWIDTH 1000 0
DWIDTH 16 0
BBX 16 16 0 -2
BITMAP
1000
145e
1292
7ff2
111e
1552
1d52
1552
355e
57d2
1152
1222
524a
2484
0000
0000
ENDCHAR
STARTCHAR ch-33
ENCODING 33
SWIDTH 1000 0
DWIDTH 16 0
BBX 16 16 0 -2
BITMAP
09fc
0888
0870
7d8c
0bde
0a52
0d8c
1a52
6820
0fff
08a8
0924
2a23
1020
0000
0000
ENDCHAR
STARTCHAR ch-34
ENCODING 34
SWIDTH 1000 0
DWIDTH 16 0
BBX 16 16 0 -2
BITMAP
17ff
1000
1104
7a49
17df
1000
17ff
1800
13fe
7202
13fe
1202
13fe
3202
0000
0000
ENDCHAR
STARTCHAR ch-35
ENCODING 35
SWIDTH 1000 0
DWIDTH 16 0
BBX 16 16 0 -2
BITMAP
1008
100a
1009
7bff
1208
13f8
1a68
1248
335a
52ec
1248
1255
14a3
3111
0000
0000
ENDCHAR
STARTCHAR ch-36
ENCODING 36
SWIDTH 1000 0
DWIDTH 16 0
BBX 16 16 0 -2
BITMAP
0882
0844
09ff
7c00
0844
0882
0d01
0800
18fe
28aa
48aa
08aa
08aa
19ff
0000
0000
ENDCHAR
STARTCHAR ch-37
ENCODING 37
SWIDTH 1000 0
DWIDTH 16 0
BBX 16 16 0 -2
BITMAP
1420
127f
10c1
7f41
117f
1240
1440
127f
1941
7141
117f
1200
5500
28ff
0000
0000
ENDCHAR
STARTCHAR ch-38
ENCODING 38
SWIDTH 1000 0
DWIDTH 16 0
BBX 16 16 0 -2
BITMAP
1000
13de
7c42
13de
1210
1bde
1042
3252
514a
114a
1252
1042
514a
2084
0000
0000
ENDCHAR
STARTCHAR ch-39
ENCODING 39
SWIDTH 1000 0
DWIDTH 16 0
BBX 16 16 0 -2
BITMAP
1004
17f8
1200
13fe
7a02
13fe
1200
13ef
1a21
32a5
5263
12a5
5421
20c6
0000
0000
ENDCHAR
STARTCHAR ch-40
ENCODING 40
SWIDTH 1000 0
DWIDTH 16 0
BBX 16 16 0 -2
BITMAP
10fe
1082
10fe
7c82
10fe
1000
11ef
1821
3129
50a5
1021
10a5
5129
2042
0000
0000
ENDCHAR
STARTCHAR ch-42
ENCODING 42
SWIDTH 1000 0
DWIDTH 16 0
BBX 16 16 0 -2
BITMAP
1020
11ff
1110
7dfe
1112
11ff
1512
19fe
7110
11fe
1282
1282
54fe
2082
0000
0000
ENDCHAR
STARTCHAR ch-43
ENCODING 43
SWIDTH 1000 0
DWIDTH 16 0
BBX 16 16 0 -2
BITMAP
103c
3e24
2a25
2647
7fbe
3222
2a1c
466b
0ff0
1ffc
0080
3ffe
0080
0180
0000
0000
ENDCHAR
STARTCHAR ch-44
ENCODING 44
SWIDTH 1000 0
DWIDTH 16 0
BBX 16 16 0 -2
BITMAP
109e
1112
13d2
7e52
1361
12c0
17de
1a52
7352
12d2
124c
124c
5252
24e1
0000
0000
ENDCHAR
STARTCHAR ch-45
ENCODING 45
SWIDTH 1000 0
DWIDTH 16 0
BBX 16 16 0 -2
BITMAP
1088
13fe
1088
7c20
1050
1088
1107
1afa
7000
11fc
1104
1104
51fc
2104
0000
0000
ENDCHAR
STARTCHAR ch-46
ENCODING 46
SWIDTH 1000 0
DWIDTH 16 0
BBX 16 16 0 -2
BITMAP
09ff
0828
0828
7dff
0929
0929
0dff
0810
19ff
2838
4854
0892
0911
1810
0000
0000
ENDCHAR
STARTCHAR ch-47
ENCODING 47
SWIDTH 1000 0
DWIDTH 16 0
BBX 16 16 0 -2
BITMAP
13fe
10a8
7d24
1222
1000
1080
110e
1a02
3202
5202
13de
1202
5202
23fe
0000
0000
ENDCHAR
STARTCHAR ch-48
ENCODING 48
SWIDTH 1000 0
DWIDTH 16 0
BBX 16 16 0 -2
BITMAP
11fc
1104
113c
7d24
17ff
1401
11fc
1904
71fc
1104
11fc
1104
5104
220c
0000
0000
ENDCHAR
STARTCHAR ch-51
ENCODING 51
SWIDTH 1000 0
DWIDTH 16 0
BBX 16 16 0 -2
BITMAP
1020
17ff
1421
79fc
1020
11fc
1020
17ff
1800
71fc
1104
1104
51fc
2104
0000
0000
ENDCHAR
STARTCHAR ch-52
ENCODING 52
SWIDTH 1000 0
DWIDTH 16 0
BBX 16 16 0 -2
BITMAP
0080
3fff
2221
4ffa
0ff8
7fff
0410
0be8
1087
67f2
0080
1ffc
0080
0180
0000
0000
ENDCHAR
STARTCHAR ch-53
ENCODING 53
SWIDTH 1000 0
DWIDTH 16 0
BBX 16 16 0 -2
BITMAP
1000
11fc
1124
7d24
1154
118c
1104
15fc
1800
73fe
1252
1252
1252
37ff
0000
0000
ENDCHAR
STARTCHAR ch-54
ENCODING 54
SWIDTH 1000 0
DWIDTH 16 0
BBX 16 16 0 -2
BITMAP
1010
1028
1044
7c92
117d
1044
147c
1844
707c
1080
117e
1242
5042
207e
0000
0000
ENDCHAR
STARTCHAR ch-55
ENCODING 55
SWIDTH 1000 0
DWIDTH 16 0
BBX 16 16 0 -2
BITMAP
1020
13fe
1020
7dfc
1104
11fc
1104
19fc
3104
51fc
1104
17ff
5104
2202
0000
0000
ENDCHAR
STARTCHAR ch-57
ENCODING 57
SWIDTH 1000 0
DWIDTH 16 0
BBX 16 16 0 -2
BITMAP
09ff
0800
087c
0844
7c44
087c
0c00
09ff
1945
2929
497d
0911
0911
1907
0000
0000
ENDCHAR
STARTCHAR ch-61
ENCODING 61
SWIDTH 1000 0
DWIDTH 16 0
BBX 16 16 0 -2
BITMAP
1088
13fe
1088
7c20
1050
1088
1127
1a22
71fc
10a8
1124
1223
54a1
2040
0000
0000
ENDCHAR
STARTCHAR ch-62
ENCODING 62
SWIDTH 1000 0
DWIDTH 16 0
BBX 16 16 0 -2
BITMAP
1010
11ff
1145
7d45
10a2
1420
187e
10a0
1120
303e
5020
103e
3020
1020
0000
0000
ENDCHAR
STARTCHAR ch-63
ENCODING 63
SWIDTH 1000 0
DWIDTH 16 0
BBX 16 16 0 -2
BITMAP
0482
789c
1144
1224
7c1f
13e4
1004
13e4
7e3f
1224
1224
13e4
5014
2008
0000
0000
ENDCHAR
STARTCHAR ch-64
ENCODING 64
SWIDTH 1000 0
DWIDTH 16 0
BBX 16 16 0 -2
BITMAP
1100
11fe
1302
7d02
11fe
1100
15ff
1900
11ff
7001
12a9
12a9
5001
200e
0000
0000
ENDCHAR
STARTCHAR ch-65
ENCODING 65
SWIDTH 1000 0
DWIDTH 16 0
BBX 16 16 0 -2
BITMAP
1000
11fc
1124
7dfc
1124
1154
198c
31fc
5000
10a0
1292
1285
5485
207c
0000
0000
ENDCHAR
STARTCHAR ch-67
ENCODING 67
SWIDTH 1000 0
DWIDTH 16 0
BBX 16 16 0 -2
BITMAP
10fe
1010
1010
7dff
1000
10fe
1082
14fe
1882
70fe
1082
10fe
5044
2082
0000
0000
ENDCHAR
STARTCHAR ch-75
ENCODING 75
SWIDTH 1000 0
DWIDTH 16 0
BBX 16 16 0 -2
BITMAP
145c
1294
1114
7e94
1455
1127
1540
1bfe
7122
1562
1554
1548
1122
3141
0000
0000
ENDCHAR
STARTCHAR ch-77
ENCODING 77
SWIDTH 1000 0
DWIDTH 16 0
BBX 16 16 0 -2
BITMAP
1020
17ff
1401
7880
117f
1308
1510
197f
7141
1141
117f
1141
5141
217f
0000
0000
ENDCHAR
STARTCHAR ch-78
ENCODING 78
SWIDTH 1000 0
DWIDTH 16 0
BBX 16 16 0 -2
BITMAP
13de
114a
12d6
7d4a
10c6
1000
1430
18cc
3313
5068
1010
10e4
1008
31f0
0000
0000
ENDCHAR
STARTCHAR ch-80
ENCODING 80
SWIDTH 1000 0
DWIDTH 16 0
BBX 16 16 0 -2
BITMAP
1222
1222
7c66
1199
1100
1210
1610
1a50
725f
1250
1250
1270
1250
328f
0000
0000
ENDCHAR
STARTCHAR ch-81
ENCODING 81
SWIDTH 1000 0
DWIDTH 16 0
BBX 16 16 0 -2
BITMAP
17ff
140d
7c0b
17ff
1409
15e9
1d29
7529
15eb
140d
17eb
1415
57ff
2401
0000
0000
ENDCHAR
STARTCHAR ch-82
ENCODING 82
SWIDTH 1000 0
DWIDTH 16 0
BBX 16 16 0 -2
BITMAP
1002
13ff
7e02
13fe
1284
1248
17fe
1a48
3248
53ff
1248
1448
5888
2108
0000
0000
ENDCHAR
STARTCHAR ch-83
ENCODING 83
SWIDTH 1000 0
DWIDTH 16 0
BBX 16 16 0 -2
BITMAP
1040
127f
1294
7f08
1177
1208
147f
1a08
717f
1108
117f
1108
1280
347f
0000
0000
ENDCHAR
STARTCHAR ch-84
ENCODING 84
SWIDTH 1000 0
DWIDTH 16 0
BBX 16 16 0 -2
BITMAP
1020
11ff
1010
7c24
1179
1092
1529
187c
3010
53ff
1010
1010
5010
2010
0000
0000
ENDCHAR
STARTCHAR ch-88
ENCODING 88
SWIDTH 1000 0
DWIDTH 16 0
BBX 16 16 0 -2
BITMAP
1020
1010
11ff
7c44
1028
11ff
1511
19ff
7111
117d
1145
117d
5145
2102
0000
0000
ENDCHAR
STARTCHAR ch-89
ENCODING 89
SWIDTH 1000 0
DWIDTH 16 0
BBX 16 16 0 -2
BITMAP
1408
127f
1008
7f7f
1149
127f
1449
127f
1908
717f
1108
1108
1280
347f
0000
0000
ENDCHAR
STARTCHAR ch-91
ENCODING 91
SWIDTH 1000 0
DWIDTH 16 0
BBX 16 16 0 -2
BITMAP
1010
11ff
7caa
1092
10aa
14fe
1810
31ff
5111
1115
117d
1105
5101
2103
0000
0000
ENDCHAR
STARTCHAR ch-92
ENCODING 92
SWIDTH 1000 0
DWIDTH 16 0
BBX 16 16 0 -2
BITMAP
09fc
0924
0bff
7d24
09fc
0800
0dfc
1904
69fc
0904
09fc
0904
29fc
1306
0000
0000
ENDCHAR
STARTCHAR ch-93
ENCODING 93
SWIDTH 1000 0
DWIDTH 16 0
BBX 16 16 0 -2
BITMAP
1010
13ff
1248
7bff
1249
1249
13ff
1a00
7288
1288
12ee
1288
54a9
20ef
0000
0000
ENDCHAR
STARTCHAR ch-94
ENCODING 94
SWIDTH 1000 0
DWIDTH 16 0
BBX 16 16 0 -2
BITMAP
0bfe
0a22
0bfe
7e22
0bfe
0a42
0888
0df0
1840
6884
0bfe
08a8
2926
1222
0000
0000
ENDCHAR
STARTCHAR ch-95
ENCODING 95
SWIDTH 1000 0
DWIDTH 16 0
BBX 16 16 0 -2
BITMAP
1020
13fe
1222
7fff
1222
13fe
1820
33fe
5222
13fe
10a8
17ff
5020
27df
0000
0000
ENDCHAR
STARTCHAR ch-96
ENCODING 96
SWIDTH 1000 0
DWIDTH 16 0
BBX 16 16 0 -2
BITMAP
1080
11fe
118a
7d56
112a
1152
15aa
19fe
7000
12a2
1291
1289
1482
30fe
0000
0000
ENDCHAR
STARTCHAR ch-97
ENCODING 97
SWIDTH 1000 0
DWIDTH 16 0
BBX 16 16 0 -2
BITMAP
1000
17df
1454
7fd4
1454
17df
1404
1404
1c04
748c
148c
1555
1625
3047
0000
0000
ENDCHAR
STARTCHAR ch-101
ENCODING 101
SWIDTH 1000 0
DWIDTH 16 0
BBX 16 16 0 -2
BITMAP
1080
10fe
1100
7cfc
1084
10fc
1484
18fc
73ff
1100
11ff
1249
5049
2093
0000
0000
ENDCHAR
STARTCHAR ch-102
ENCODING 102
SWIDTH 1000 0
DWIDTH 16 0
BBX 16 16 0 -2
BITMAP
1100
1104
17c8
7d32
12a2
146a
1baa
102a
77ea
122a
13aa
10aa
50ad
235e
0000
0000
ENDCHAR
STARTCHAR ch-103
ENCODING 103
SWIDTH 1000 0
DWIDTH 16 0
BBX 16 16 0 -2
BITMAP
0810
0892
0892
7efe
0850
0a88
0cff
1988
6afe
0888
08fe
0888
28ff
1080
0000
0000
ENDCHAR
STARTCHAR ch-104
ENCODING 104
SWIDTH 1000 0
DWIDTH 16 0
BBX 16 16 0 -2
BITMAP
13ff
1201
13ff
7e10
13d7
1210
13d7
1a50
72fe
1310
15ff
1010
3010
1010
0000
0000
ENDCHAR
STARTCHAR ch-105
ENCODING 105
SWIDTH 1000 0
DWIDTH 16 0
BBX 16 16 0 -2
BITMAP
0080
3ffe
2210
3ffe
2738
2ad7
3212
27f8
23f8
2040
2ffe
2040
4140
0080
0000
0000
ENDCHAR
STARTCHAR ch-107
ENCODING 107
SWIDTH 1000 0
DWIDTH 16 0
BBX 16 16 0 -2
BITMAP
113e
1122
17e2
7d3e
1122
1122
153e
1fe2
7122
113e
1114
1295
5455
2067
0000
0000
ENDCHAR
STARTCHAR ch-108
ENCODING 108
SWIDTH 1000 0
DWIDTH 16 0
BBX 16 16 0 -2
BITMAP
1010
11ff
7c44
11ff
1000
10fe
1482
18fe
7082
10fe
1028
1048
5089
230f
0000
0000
ENDCHAR
STARTCHAR ch-109
ENCODING 109
SWIDTH 1000 0
DWIDTH 16 0
BBX 16 16 0 -2
BITMAP
0820
0810
09ff
7f44
0944
09ff
0b44
0d44
197c
6900
0a44
0aaa
2aa9
1529
0000
0000
ENDCHAR
STARTCHAR ch-110
ENCODING 110
SWIDTH 1000 0
DWIDTH 16 0
BBX 16 16 0 -2
BITMAP
0820
7f3f
3e44
08a8
7f10
1e28
1247
6604
3ff8
3ffe
0080
7fff
0080
0380
0000
0000
ENDCHAR
STARTCHAR ch-111
ENCODING 111
SWIDTH 1000 0
DWIDTH 16 0
BBX 16 16 0 -2
BITMAP
0810
3e10
087c
7f14
2254
7f25
0855
7f8f
0bf0
07f8
0080
1ffc
0080
0380
0000
0000
ENDCHAR
STARTCHAR ch-112
ENCODING 112
SWIDTH 1000 0
DWIDTH 16 0
BBX 16 16 0 -2
BITMAP
0810
3e10
087c
7f14
2a34
7f15
082d
7e07
0ff0
1ffc
0080
7fff
0080
0380
0000
0000
ENDCHAR
STARTCHAR ch-114
ENCODING 114
SWIDTH 1000 0
DWIDTH 16 0
BBX 16 16 0 -2
BITMAP
2101
27de
2110
77d0
255f
27d2
2552
37d2
6112
27d2
2112
2122
2102
6102
0000
0000
ENDCHAR
STARTCHAR ch-115
ENCODING 115
SWIDTH 1000 0
DWIDTH 16 0
BBX 16 16 0 -2
BITMAP
13ff
1200
127c
7e44
1244
127c
1600
1aee
32aa
52aa
12aa
12ee
5200
23ff
0000
0000
ENDCHAR
STARTCHAR ch-116
ENCODING 116
SWIDTH 1000 0
DWIDTH 16 0
BBX 16 16 0 -2
BITMAP
17ff
1020
17ff
7d29
14a5
1000
15fc
1800
37ff
5080
11ff
1001
5022
201c
0000
0000
ENDCHAR
STARTCHAR ch-117
ENCODING 117
SWIDTH 1000 0
DWIDTH 16 0
BBX 16 16 0 -2
BITMAP
1009
13ff
7e08
1248
1278
1248
1648
1bf8
7249
12ea
135c
1248
5255
24c3
0000
0000
ENDCHAR
STARTCHAR ch-118
ENCODING 118
SWIDTH 1000 0
DWIDTH 16 0
BBX 16 16 0 -2
BITMAP
1010
11ff
10fe
7c92
10fe
1092
14fe
1811
31ff
5004
13ff
1084
5044
200c
0000
0000
ENDCHAR
STARTCHAR ch-119
ENCODING 119
SWIDTH 1000 0
DWIDTH 16 0
BBX 16 16 0 -2
BITMAP
1092
1124
1092
7c00
10fe
1092
10fe
1492
18fe
7010
11ff
1054
5092
2111
0000
0000
ENDCHAR
STARTCHAR ch-120
ENCODING 120
SWIDTH 1000 0
DWIDTH 16 0
BBX 16 16 0 -2
BITMAP
0888
0fff
0888
7e88
09fc
0b04
0dfc
1904
69fc
0820
0fff
0850
288e
1304
0000
0000
ENDCHAR
STARTCHAR ch-121
ENCODING 121
SWIDTH 1000 0
DWIDTH 16 0
BBX 16 16 0 -2
BITMAP
0410
7fff
0410
1ffc
1084
1ffc
0220
7fff
0808
17e4
27f2
4ff9
0080
0380
0000
0000
ENDCHAR
STARTCHAR ch-122
ENCODING 122
SWIDTH 1000 0
DWIDTH 16 0
BBX 16 16 0 -2
BITMAP
13df
1251
7d45
1145
1249
10a2
1440
19fe
7102
1102
11fe
1102
5102
21fe
0000
0000
ENDCHAR
STARTCHAR ch-123
ENCODING 123
SWIDTH 1000 0
DWIDTH 16 0
BBX 16 16 0 -2
BITMAP
1020
1048
10fc
7c84
1129
13ff
18f8
3124
524a
1491
1024
1048
5010
20e0
0000
0000
ENDCHAR
STARTCHAR ch-125
ENCODING 125
SWIDTH 1000 0
DWIDTH 16 0
BBX 16 16 0 -2
BITMAP
11ff
1028
7dff
1129
1129
11ff
1400
18fe
7000
11ff
1054
1092
5111
2010
0000
0000
ENDCHAR
STARTCHAR ch-127
ENCODING 127
SWIDTH 1000 0
DWIDTH 16 0
BBX 16 16 0 -2
BITMAP
1020
1050
1088
7d24
12fa
1451
1050
1bfe
1000
31fc
5104
11fc
1104
31fc
0000
0000
ENDCHAR
STARTCHAR ch-130
ENCODING 130
SWIDTH 1000 0
DWIDTH 16 0
BBX 16 16 0 -2
BITMAP
11fc
1124
11fc
7d24
11fc
1040
14fc
1988
7070
118c
16fb
1088
5088
20f8
0000
0000
ENDCHAR
STARTCHAR ch-133
ENCODING 133
SWIDTH 1000 0
DWIDTH 16 0
BBX 16 16 0 -2
BITMAP
1000
17ff
1514
7ca7
17f9
1450
1d54
1554
35f4
5444
1444
1884
510a
2211
0000
0000
ENDCHAR
STARTCHAR ch-135
ENCODING 135
SWIDTH 1000 0
DWIDTH 16 0
BBX 16 16 0 -2
BITMAP
1088
12d0
12a0
7cbf
1082
17f2
1c92
3492
55d2
16ba
149a
1494
141a
3431
0000
0000
ENDCHAR
STARTCHAR ch-136
ENCODING 136
SWIDTH 1000 0
DWIDTH 16 0
BBX 16 16 0 -2
BITMAP
1104
1555
7d55
1104
1a8a
1451
37ff
5441
11fc
1044
1044
1084
5114
2208
0000
0000
ENDCHAR
STARTCHAR ch-137
ENCODING 137
SWIDTH 1000 0
DWIDTH 16 0
BBX 16 16 0 -2
BITMAP
0820
7f20
3e3f
2242
3e14
3e08
0414
7f22
0841
1ff8
0ff8
3ffe
0080
0380
0000
0000
ENDCHAR
STARTCHAR ch-138
ENCODING 138
SWIDTH 1000 0
DWIDTH 16 0
BBX 16 16 0 -2
BITMAP
17df
1451
17df
7c51
17df
1401
15fd
1d05
15fd
7505
15fd
1505
560d
2403
0000
0000
ENDCHAR
STARTCHAR ch-139
ENCODING 139
SWIDTH 1000 0
DWIDTH 16 0
BBX 16 16 0 -2
BITMAP
17df
1451
17df
7c51
17df
1401
15fd
3421
5421
15fd
1421
1421
35fd
1402
0000
0000
ENDCHAR
STARTCHAR ch-140
ENCODING 140
SWIDTH 1000 0
DWIDTH 16 0
BBX 16 16 0 -2
BITMAP
0810
08fe
0892
08fe
7c10
09ff
0cfe
0882
18fe
2882
48fe
0882
08fe
1901
0000
0000
ENDCHAR
STARTCHAR ch-143
ENCODING 143
SWIDTH 1000 0
DWIDTH 16 0
BBX 16 16 0 -2
BITMAP
13fe
1002
17ff
7c02
13fe
17df
1911
17df
7004
17ff
1204
1104
3004
1018
0000
0000
ENDCHAR
STARTCHAR ch-144
ENCODING 144
SWIDTH 1000 0
DWIDTH 16 0
BBX 16 16 0 -2
BITMAP
1124
10a8
13ff
7e01
12fa
1088
18f8
7000
10fc
1088
11ff
1048
50a8
2310
0000
0000
ENDCHAR
STARTCHAR ch-146
ENCODING 146
SWIDTH 1000 0
DWIDTH 16 0
BBX 16 16 0 -2
BITMAP
1148
13e8
7d4f
1152
17fa
180a
13ea
322a
53e4
1224
13ea
122a
5231
2260
0000
0000
ENDCHAR
STARTCHAR ch-147
ENCODING 147
SWIDTH 1000 0
DWIDTH 16 0
BBX 16 16 0 -2
BITMAP
1020
10f8
1020
7dfc
1104
138e
1904
17df
3000
53fe
1090
1111
5211
241f
0000
0000
ENDCHAR
STARTCHAR ch-149
ENCODING 149
SWIDTH 1000 0
DWIDTH 16 0
BBX 16 16 0 -2
BITMAP
1240
1246
17f8
7e50
13d0
165f
1bd4
7254
1254
1ff4
1014
1254
5424
2044
0000
0000
ENDCHAR
STARTCHAR ch-150
ENCODING 150
SWIDTH 1000 0
DWIDTH 16 0
BBX 16 16 0 -2
BITMAP
1008
13c8
1090
7d1f
17e2
1252
13d2
1654
1bd4
7248
1268
1fd4
5063
2042
0000
0000
ENDCHAR
STARTCHAR ch-151
ENCODING 151
SWIDTH 1000 0
DWIDTH 16 0
BBX 16 16 0 -2
BITMAP
1088
17ff
1088
7cf8
1000
17ff
1000
13fe
1a22
73fe
1222
13fe
5104
2202
0000
0000
ENDCHAR
STARTCHAR ch-152
ENCODING 152
SWIDTH 1000 0
DWIDTH 16 0
BBX 16 16 0 -2
BITMAP
1108
11ef
1252
7c30
1048
1084
1102
1afd
7000
10fc
1084
1084
30fc
1084
0000
0000
ENDCHAR
STARTCHAR ch-153
ENCODING 153
SWIDTH 1000 0
DWIDTH 16 0
BBX 16 16 0 -2
BITMAP
0888
0bfe
0850
7dfc
0954
098c
0974
19fc
6808
0fff
0908
0888
28a8
1010
0000
0000
ENDCHAR
STARTCHAR ch-154
ENCODING 154
SWIDTH 1000 0
DWIDTH 16 0
BBX 16 16 0 -2
BITMAP
1104
1105
11e4
7d24
113f
12a4
1664
1944
308a
5111
1200
1249
5249
2449
0000
0000
ENDCHAR
STARTCHAR ch-156
ENCODING 156
SWIDTH 1000 0
DWIDTH 16 0
BBX 16 16 0 -2
BITMAP
17d2
1054
1459
7c8a
1304
13fe
1000
15fc
1904
71fc
1000
1104
5088
23fe
0000
0000
ENDCHAR
STARTCHAR ch-157
ENCODING 157
SWIDTH 1000 0
DWIDTH 16 0
BBX 16 16 0 -2
BITMAP
1088
1050
7dfc
1044
1048
14fe
1882
3104
53ff
1401
1955
1155
5201
200e
0000
0000
ENDCHAR
STARTCHAR ch-158
ENCODING 158
SWIDTH 1000 0
DWIDTH 16 0
BBX 16 16 0 -2
BITMAP
1020
13fe
1088
7fff
1000
11fc
1524
19fc
7124
11fc
1020
13fe
5020
27ff
0000
0000
ENDCHAR
STARTCHAR ch-159
ENCODING 159
SWIDTH 1000 0
DWIDTH 16 0
BBX 16 16 0 -2
BITMAP
13fc
1020
17ff
7888
11fc
128a
14f9
1800
73fe
1202
12fa
128a
52fa
2206
0000
0000
ENDCHAR
STARTCHAR ch-160
ENCODING 160
SWIDTH 1000 0
DWIDTH 16 0
BBX 16 16 0 -2
BITMAP
1088
1089
13e9
7c9f
13e8
1228
13e8
1228
1be9
708a
13ec
1088
1095
3083
0000
0000
ENDCHAR
STARTCHAR ch-162
ENCODING 162
SWIDTH 1000 0
DWIDTH 16 0
BBX 16 16 0 -2
BITMAP
11fe
1048
7fff
1249
13ff
15fe
1902
11fe
3102
51fe
1010
13ff
5010
2010
0000
0000
ENDCHAR
STARTCHAR ch-163
ENCODING 163
SWIDTH 1000 0
DWIDTH 16 0
BBX 16 16 0 -2
BITMAP
17df
1451
7fdf
1000
13fe
1622
1bfe
1222
73fe
1020
17ff
1020
3020
1020
0000
0000
ENDCHAR
STARTCHAR ch-164
ENCODING 164
SWIDTH 1000 0
DWIDTH 16 0
BBX 16 16 0 -2
BITMAP
1088
17e8
1108
7a5f
17e2
1012
1bd4
1254
73d4
1248
13c8
1254
5263
22c2
0000
0000
ENDCHAR
STARTCHAR ch-165
ENCODING 165
SWIDTH 1000 0
DWIDTH 16 0
BBX 16 16 0 -2
BITMAP
10e4
102a
7d44
1082
1501
19ee
102a
31f3
5080
11ee
102a
1024
512a
20d1
0000
0000
ENDCHAR
STARTCHAR ch-166
ENCODING 166
SWIDTH 1000 0
DWIDTH 16 0
BBX 16 16 0 -2
BITMAP
1010
11ff
7c44
1092
137d
1014
15ff
1810
707e
10c2
137e
1042
507e
2042
0000
0000
ENDCHAR
STARTCHAR ch-169
ENCODING 169
SWIDTH 1000 0
DWIDTH 16 0
BBX 16 16 0 -2
BITMAP
0820
0bff
0850
7e8a
0904
0bff
0d04
19fc
6904
09fc
08a8
0926
2aa2
1040
0000
0000
ENDCHAR
STARTCHAR ch-171
ENCODING 171
SWIDTH 1000 0
DWIDTH 16 0
BBX 16 16 0 -2
BITMAP
0880
0880
09ff
0aaa
7caa
09ff
0caa
08aa
18aa
2bff
4800
0929
2929
1229
0000
0000
ENDCHAR
STARTCHAR ch-172
ENCODING 172
SWIDTH 1000 0
DWIDTH 16 0
BBX 16 16 0 -2
BITMAP
09fc
08f8
7ffc
0821
0a3f
0c00
1bde
2888
4bde
0888
0fdf
0888
28a9
10c7
0000
0000
ENDCHAR
STARTCHAR ch-173
ENCODING 173
SWIDTH 1000 0
DWIDTH 16 0
BBX 16 16 0 -2
BITMAP
101c
11e0
1124
7ca8
13ff
10a8
1524
1a23
71fc
1124
11fc
1124
5124
21fc
0000
0000
ENDCHAR
STARTCHAR ch-174
ENCODING 174
SWIDTH 1000 0
DWIDTH 16 0
BBX 16 16 0 -2
BITMAP
11fe
1104
11fc
7d04
11fc
17ff
1a40
73fe
1242
13d4
1248
17c8
5054
2063
0000
0000
ENDCHAR
STARTCHAR ch-176
ENCODING 176
SWIDTH 1000 0
DWIDTH 16 0
BBX 16 16 0 -2
BITMAP
09ef
0929
09ef
7d08
0929
0ce7
0800
1844
29ff
4844
09ff
0844
2883
1101
0000
0000
ENDCHAR
STARTCHAR ch-177
ENCODING 177
SWIDTH 1000 0
DWIDTH 16 0
BBX 16 16 0 -2
BITMAP
13d0
127f
1250
12bf
7b44
129f
1240
125f
1251
325f
5351
129f
5211
2223
0000
0000
ENDCHAR
STARTCHAR ch-178
ENCODING 178
SWIDTH 1000 0
DWIDTH 16 0
BBX 16 16 0 -2
BITMAP
1252
1154
13fe
7888
1050
11fc
1820
11fc
3020
53fe
1020
1050
5088
2306
0000
0000
ENDCHAR
STARTCHAR ch-179
ENCODING 179
SWIDTH 1000 0
DWIDTH 16 0
BBX 16 16 0 -2
BITMAP
1080
1144
1228
7c1f
13e5
1485
1884
13e4
3084
52aa
11ca
108a
57f1
2000
0000
0000
ENDCHAR
STARTCHAR ch-187
ENCODING 187
SWIDTH 1000 0
DWIDTH 16 0
BBX 16 16 0 -2
BITMAP
1008
1008
123e
1108
7d7f
1014
1bbe
1088
333e
5088
10be
1088
3188
127f
0000
0000
ENDCHAR
STARTCHAR ch-188
ENCODING 188
SWIDTH 1000 0
DWIDTH 16 0
BBX 16 16 0 -2
BITMAP
080a
0808
0bff
7e08
0bf8
0a0a
0eea
1aac
6aa9
0af5
0a03
0d92
2a85
127c
0000
0000
ENDCHAR
STARTCHAR ch-189
ENCODING 189
SWIDTH 1000 0
DWIDTH 16 0
BBX 16 16 0 -2
BITMAP
1108
13e8
122f
7be8
1230
13e2
1882
37ea
510a
11ea
112a
1124
522a
2051
0000
0000
ENDCHAR
STARTCHAR ch-190
ENCODING 190
SWIDTH 1000 0
DWIDTH 16 0
BBX 16 16 0 -2
BITMAP
083e
0922
08ae
7c2a
082a
0b7f
0d41
095d
1955
295d
4941
0b42
2880
107f
0000
0000
ENDCHAR
STARTCHAR ch-191
ENCODING 191
SWIDTH 1000 0
DWIDTH 16 0
BBX 16 16 0 -2
BITMAP
1030
1048
1084
7d02
12fd
1000
15dc
1954
71dc
1088
1088
1154
5222
2421
0000
0000
ENDCHAR
STARTCHAR ch-193
ENCODING 193
SWIDTH 1000 0
DWIDTH 16 0
BBX 16 16 0 -2
BITMAP
0040
1020
13fe
7c88
1114
123e
1154
189e
3114
5254
13de
1094
3114
121e
0000
0000
ENDCHAR
STARTCHAR ch-194
ENCODING 194
SWIDTH 1000 0
DWIDTH 16 0
BBX 16 16 0 -2
BITMAP
11fe
1020
13ff
7e21
15ae
1020
15ac
1800
73fe
1222
13fe
1222
5222
23fe
0000
0000
ENDCHAR
STARTCHAR ch-195
ENCODING 195
SWIDTH 1000 0
DWIDTH 16 0
BBX 16 16 0 -2
BITMAP
1050
13fe
1252
13fe
7a52
13fe
13fe
1200
1afe
7200
13fe
1292
548c
20c6
0000
0000
ENDCHAR
STARTCHAR ch-196
ENCODING 196
SWIDTH 1000 0
DWIDTH 16 0
BBX 16 16 0 -2
BITMAP
0820
0838
0bff
0a21
7efc
0a3c
0e7c
0a54
1afe
2a54
4a7c
0dff
0841
1986
0000
0000
ENDCHAR
STARTCHAR ch-197
ENCODING 197
SWIDTH 1000 0
DWIDTH 16 0
BBX 16 16 0 -2
BITMAP
1040
1020
13ff
7dfe
117a
154a
197a
31fe
50fc
1084
10fc
1084
30fc
13ff
0000
0000
ENDCHAR
STARTCHAR ch-199
ENCODING 199
SWIDTH 1000 0
DWIDTH 16 0
BBX 16 16 0 -2
BITMAP
11ff
1129
7dff
1010
10fe
1410
19ff
1044
31ff
5010
10fe
1010
3010
1010
0000
0000
ENDCHAR
STARTCHAR ch-201
ENCODING 201
SWIDTH 1000 0
DWIDTH 16 0
BBX 16 16 0 -2
BITMAP
11ff
1129
11ff
7c80
10ff
1121
16f9
18a9
70a9
10f9
1025
11fd
5001
2006
0000
0000
ENDCHAR
STARTCHAR ch-202
ENCODING 202
SWIDTH 1000 0
DWIDTH 16 0
BBX 16 16 0 -2
BITMAP
083c
7f25
0847
3e7c
3e28
6b10
7f6f
7f08
0ff0
3ffe
0080
7fff
0080
0380
0000
0000
ENDCHAR
STARTCHAR ch-203
ENCODING 203
SWIDTH 1000 0
DWIDTH 16 0
BBX 16 16 0 -2
BITMAP
1092
1054
7dff
1101
117d
1444
187c
3000
50fe
1092
10fe
1092
30fe
1082
0000
0000
ENDCHAR
STARTCHAR ch-205
ENCODING 205
SWIDTH 1000 0
DWIDTH 16 0
BBX 16 16 0 -2
BITMAP
1078
1048
1078
7c00
11ef
1529
19ef
3010
51ff
1038
1054
1092
5111
2010
0000
0000
ENDCHAR
STARTCHAR ch-206
ENCODING 206
SWIDTH 1000 0
DWIDTH 16 0
BBX 16 16 0 -2
BITMAP
1210
7f90
121f
1fa2
20d4
5e88
1eb7
0100
1fc0
0ff8
0080
7fff
0080
0180
0000
0000
ENDCHAR
STARTCHAR ch-207
ENCODING 207
SWIDTH 1000 0
DWIDTH 16 0
BBX 16 16 0 -2
BITMAP
1148
13e8
1148
780f
1212
13e2
1422
1ba2
72b2
12b2
13aa
1024
502a
20d1
0000
0000
ENDCHAR
STARTCHAR ch-208
ENCODING 208
SWIDTH 1000 0
DWIDTH 16 0
BBX 16 16 0 -2
BITMAP
13fe
1252
7ffe
1000
13fe
1800
11fc
3104
51fc
10a2
1194
1288
54c7
2082
0000
0000
ENDCHAR
STARTCHAR ch-210
ENCODING 210
SWIDTH 1000 0
DWIDTH 16 0
BBX 16 16 0 -2
BITMAP
0820
0850
09ac
7efb
0852
0924
0d54
19fc
6820
0bfe
0a52
0afa
2a0a
1204
0000
0000
ENDCHAR
STARTCHAR ch-212
ENCODING 212
SWIDTH 1000 0
DWIDTH 16 0
BBX 16 16 0 -2
BITMAP
08fc
0908
09ff
7d44
0992
0dff
0900
197e
2900
497e
0900
0a7e
2842
107e
0000
0000
ENDCHAR
STARTCHAR ch-214
ENCODING 214
SWIDTH 1000 0
DWIDTH 16 0
BBX 16 16 0 -2
BITMAP
1044
11ff
1044
10fe
7c82
10fe
1082
14fe
197f
7311
1511
1129
51fd
2002
0000
0000
ENDCHAR
STARTCHAR ch-215
ENCODING 215
SWIDTH 1000 0
DWIDTH 16 0
BBX 16 16 0 -2
BITMAP
1008
13e4
123f
7a20
13ea
120a
121f
1be4
7324
133f
1524
19e4
5124
2004
0000
0000
ENDCHAR
STARTCHAR ch-216
ENCODING 216
SWIDTH 1000 0
DWIDTH 16 0
BBX 16 16 0 -2
BITMAP
1f10
11fe
1f28
10ff
1f10
317c
5f10
1ffc
0080
0ff8
0080
7fff
0080
0180
0000
0000
ENDCHAR
STARTCHAR ch-217
ENCODING 217
SWIDTH 1000 0
DWIDTH 16 0
BBX 16 16 0 -2
BITMAP
1100
13fe
1202
7efa
12aa
1272
13fe
1672
1aaa
7222
17ff
1050
1088
3707
0000
0000
ENDCHAR
STARTCHAR ch-218
ENCODING 218
SWIDTH 1000 0
DWIDTH 16 0
BBX 16 16 0 -2
BITMAP
0810
081c
09ff
0911
7d7e
0910
0d1e
097e
1920
297c
4995
0926
094d
1828
0000
0000
ENDCHAR
STARTCHAR ch-219
ENCODING 219
SWIDTH 1000 0
DWIDTH 16 0
BBX 16 16 0 -2
BITMAP
1044
11ff
1044
1094
7dff
1094
109c
1480
18ff
7010
11ff
1054
5092
2111
0000
0000
ENDCHAR
STARTCHAR ch-224
ENCODING 224
SWIDTH 1000 0
DWIDTH 16 0
BBX 16 16 0 -2
BITMAP
1020
1010
11ff
7c44
102a
13d4
1156
1a55
7102
11fe
1102
11fe
5102
2202
0000
0000
ENDCHAR
STARTCHAR ch-226
ENCODING 226
SWIDTH 1000 0
DWIDTH 16 0
BBX 16 16 0 -2
BITMAP
17df
1041
134d
7dc7
1041
1596
1a10
33ff
5210
13fe
13fe
1210
53ff
2200
0000
0000
ENDCHAR
STARTCHAR ch-227
ENCODING 227
SWIDTH 1000 0
DWIDTH 16 0
BBX 16 16 0 -2
BITMAP
0810
09ff
0810
08fe
7dff
0801
0cff
0810
19ff
29ff
4802
09ff
092a
19e6
0000
0000
ENDCHAR
STARTCHAR ch-228
ENCODING 228
SWIDTH 1000 0
DWIDTH 16 0
BBX 16 16 0 -2
BITMAP
087c
08c4
097c
087c
7c44
087c
0cfe
0892
18fe
2892
48fe
0828
09ff
1848
0000
0000
ENDCHAR
STARTCHAR ch-230
ENCODING 230
SWIDTH 1000 0
DWIDTH 16 0
BBX 16 16 0 -2
BITMAP
1020
17ff
1501
7dde
1352
1294
158c
1904
72fb
1400
13fe
1124
5222
20c0
0000
0000
ENDCHAR
STARTCHAR ch-232
ENCODING 232
SWIDTH 1000 0
DWIDTH 16 0
BBX 16 16 0 -2
BITMAP
2048
2f88
2908
29cf
7911
2be1
2aa4
3be4
6a84
2ac4
2a04
32aa
24b1
6120
0000
0000
ENDCHAR
STARTCHAR ch-233
ENCODING 233
SWIDTH 1000 0
DWIDTH 16 0
BBX 16 16 0 -2
BITMAP
11ff
1010
7dff
1155
1139
1155
1000
19ff
3040
51ff
1129
1129
3129
112b
0000
0000
ENDCHAR
STARTCHAR ch-235
ENCODING 235
SWIDTH 1000 0
DWIDTH 16 0
BBX 16 16 0 -2
BITMAP
09ff
09f2
0993
09f2
7d92
09ff
0d02
09f2
1992
29f2
4992
09f2
0a94
1819
0000
0000
ENDCHAR
STARTCHAR ch-236
ENCODING 236
SWIDTH 1000 0
DWIDTH 16 0
BBX 16 16 0 -2
BITMAP
110f
11e5
1102
7de1
121f
13e5
1484
1884
33e7
5094
109c
1154
5222
2411
0000
0000
ENDCHAR
STARTCHAR ch-237
ENCODING 237
SWIDTH 1000 0
DWIDTH 16 0
BBX 16 16 0 -2
BITMAP
0844
09ff
0844
7cfe
0988
08fe
0c88
08fe
1888
28fe
48fe
0844
2838
11c7
0000
0000
ENDCHAR
STARTCHAR ch-239
ENCODING 239
SWIDTH 1000 0
DWIDTH 16 0
BBX 16 16 0 -2
BITMAP
1020
17ff
15fd
7924
122a
1070
1180
19fc
3104
51fc
11fc
1104
11fc
3603
0000
0000
ENDCHAR
STARTCHAR ch-240
ENCODING 240
SWIDTH 1000 0
DWIDTH 16 0
BBX 16 16 0 -2
BITMAP
1010
13ff
1215
7d54
113f
1400
19fe
314a
53ff
1000
13ff
1010
5050
2020
0000
0000
ENDCHAR
STARTCHAR ch-241
ENCODING 241
SWIDTH 1000 0
DWIDTH 16 0
BBX 16 16 0 -2
BITMAP
13df
1251
7bdf
1251
13df
1201
1a79
12a9
3211
52ed
1279
1249
5279
2202
0000
0000
ENDCHAR
STARTCHAR ch-242
ENCODING 242
SWIDTH 1000 0
DWIDTH 16 0
BBX 16 16 0 -2
BITMAP
1220
1147
17f5
7945
17f6
1555
1635
1dd5
3415
57f6
1084
17f4
1144
3224
0000
0000
ENDCHAR
STARTCHAR ch-243
ENCODING 243
SWIDTH 1000 0
DWIDTH 16 0
BBX 16 16 0 -2
BITMAP
1208
13cf
1492
7c00
17df
1449
17c9
1c49
77c9
140e
1408
1488
1588
3688
0000
0000
ENDCHAR
STARTCHAR ch-244
ENCODING 244
SWIDTH 1000 0
DWIDTH 16 0
BBX 16 16 0 -2
BITMAP
0810
09ff
0924
7dff
0924
093c
0dff
097e
194a
297e
4a4a
087e
2842
1081
0000
0000
ENDCHAR
STARTCHAR ch-247
ENCODING 247
SWIDTH 1000 0
DWIDTH 16 0
BBX 16 16 0 -2
BITMAP
1102
117f
7908
17d0
113e
1122
1bbe
1022
37be
54a2
14be
1790
5026
20c1
0000
0000
ENDCHAR
STARTCHAR ch-248
ENCODING 248
SWIDTH 1000 0
DWIDTH 16 0
BBX 16 16 0 -2
BITMAP
1092
1124
7c92
13fe
1222
1652
1bfe
1000
31b4
516c
11b4
116c
1125
31b3
0000
0000
ENDCHAR
STARTCHAR ch-250
ENCODING 250
SWIDTH 1000 0
DWIDTH 16 0
BBX 16 16 0 -2
BITMAP
13ff
1249
7bff
1100
1148
1bef
1008
33ef
5220
13e8
13ef
1228
5229
222f
0000
0000
ENDCHAR
STARTCHAR ch-251
ENCODING 251
SWIDTH 1000 0
DWIDTH 16 0
BBX 16 16 0 -2
BITMAP
1080
13e8
12a8
13e8
7aaf
13ea
1ff2
1492
37f2
52a2
17fa
1144
508a
2771
0000
0000
ENDCHAR
STARTCHAR ch-252
ENCODING 252
SWIDTH 1000 0
DWIDTH 16 0
BBX 16 16 0 -2
BITMAP
0820
087c
0888
08fe
7e92
08fe
0c92
09ff
1925
28fe
4882
08fe
0882
18fe
0000
0000
ENDCHAR
STARTCHAR ch-253
ENCODING 253
SWIDTH 1000 0
DWIDTH 16 0
BBX 16 16 0 -2
BITMAP
1020
1172
1254
7ef5
17df
1152
1af5
1787
3020
57ff
10a8
1124
1222
3020
0000
0000
ENDCHAR
STARTCHAR ch-254
ENCODING 254
SWIDTH 1000 0
DWIDTH 16 0
BBX 16 16 0 -2
BITMAP
0bff
0820
087c
7c64
084c
0bff
0f53
1944
287c
487c
08a8
0910
2828
11c6
0000
0000
ENDCHAR
STARTCHAR ch-255
ENCODING 255
SWIDTH 1000 0
DWIDTH 16 0
BBX 16 16 0 -2
BITMAP
1008
147f
1314
1008
7c7f
1349
117f
1949
125d
3755
515d
1141
3200
15ff
0000
0000
ENDCHAR
STARTCHAR ch-256
ENCODING 256
SWIDTH 1000 0
DWIDTH 16 0
BBX 16 16 0 -2
BITMAP
1144
7c9f
1144
388e
5555
1104
7fff
07f0
188c
67f3
0080
1ffc
0080
0180
0000
0000
ENDCHAR
STARTCHAR ch-257
ENCODING 257
SWIDTH 1000 0
DWIDTH 16 0
BBX 16 16 0 -2
BITMAP
0882
09ff
0810
09ff
7c10
09ff
0c00
0838
187c
28d6
497d
0854
0848
1866
0000
0000
ENDCHAR
STARTCHAR ch-259
ENCODING 259
SWIDTH 1000 0
DWIDTH 16 0
BBX 16 16 0 -2
BITMAP
1084
13ff
7c84
1080
11df
134a
1c84
137a
3601
51fe
1020
10a8
3124
1222
0000
0000
ENDCHAR
STARTCHAR ch-260
ENCODING 260
SWIDTH 1000 0
DWIDTH 16 0
BBX 16 16 0 -2
BITMAP
1020
1038
13ff
1221
7efe
1220
1a3c
127c
3254
527c
1254
127e
14d5
317c
0000
0000
ENDCHAR
STARTCHAR ch-262
ENCODING 262
SWIDTH 1000 0
DWIDTH 16 0
BBX 16 16 0 -2
BITMAP
0844
09ef
0844
7def
08aa
0d11
09ff
18fe
2892
48fe
0892
08fe
29ff
1010
0000
0000
ENDCHAR
STARTCHAR ch-263
ENCODING 263
SWIDTH 1000 0
DWIDTH 16 0
BBX 16 16 0 -2
BITMAP
1020
13ff
1221
12f9
7c20
10f8
1820
13fe
31fc
5154
11fc
12a4
128a
34f9
0000
0000
ENDCHAR
STARTCHAR ch-265
ENCODING 265
SWIDTH 1000 0
DWIDTH 16 0
BBX 16 16 0 -2
BITMAP
13fe
1020
17ff
7d25
10a8
1124
1bfe
7220
17fc
1a20
13fc
1220
53ff
2200
0000
0000
ENDCHAR
STARTCHAR ch-268
ENCODING 268
SWIDTH 1000 0
DWIDTH 16 0
BBX 16 16 0 -2
BITMAP
17ff
1401
15fd
1555
7dfd
1401
1dfd
14f9
3489
54f9
14d5
1559
146d
37ff
0000
0000
ENDCHAR
STARTCHAR ch-269
ENCODING 269
SWIDTH 1000 0
DWIDTH 16 0
BBX 16 16 0 -2
BITMAP
1020
17fe
1200
13fc
7bfc
1204
13fc
1f47
3555
57fd
1557
1755
5525
25d5
0000
0000
ENDCHAR
STARTCHAR ch-270
ENCODING 270
SWIDTH 1000 0
DWIDTH 16 0
BBX 16 16 0 -2
BITMAP
1020
1038
13ff
1221
7afc
123c
127c
1a54
327c
5254
127c
14fe
50aa
21ff
0000
0000
ENDCHAR
STARTCHAR ch-271
ENCODING 271
SWIDTH 1000 0
DWIDTH 16 0
BBX 16 16 0 -2
BITMAP
1088
13ef
1148
7bef
1001
13ef
1a28
122f
33e8
522f
13e8
122f
1229
326f
0000
0000
ENDCHAR
STARTCHAR ch-272
ENCODING 272
SWIDTH 1000 0
DWIDTH 16 0
BBX 16 16 0 -2
BITMAP
1020
13fe
1252
12fa
7c50
10f8
1050
15fc
1924
72fa
1050
10d4
5348
2064
0000
0000
ENDCHAR
STARTCHAR ch-275
ENCODING 275
SWIDTH 1000 0
DWIDTH 16 0
BBX 16 16 0 -2
BITMAP
1010
11ff
1129
11ff
7cfe
1028
10fe
1044
18fe
7145
107c
105e
5050
20be
0000
0000
ENDCHAR
STARTCHAR ch-276
ENCODING 276
SWIDTH 1000 0
DWIDTH 16 0
BBX 16 16 0 -2
BITMAP
178f
1489
7f8f
1489
17af
14f9
1c21
15fd
75ad
1575
15fd
14a9
3525
1402
0000
0000
ENDCHAR
STARTCHAR ch-277
ENCODING 277
SWIDTH 1000 0
DWIDTH 16 0
BBX 16 16 0 -2
BITMAP
10a8
10aa
1159
7c08
13ff
10a8
1bb8
10a8
33b8
50aa
13bc
10a8
13f5
3003
0000
0000
ENDCHAR
STARTCHAR ch-278
ENCODING 278
SWIDTH 1000 0
DWIDTH 16 0
BBX 16 16 0 -2
BITMAP
13de
1252
13de
13de
7a52
13de
1a52
14a1
3088
57ff
1050
1020
1050
338e
0000
0000
ENDCHAR
STARTCHAR ch-279
ENCODING 279
SWIDTH 1000 0
DWIDTH 16 0
BBX 16 16 0 -2
BITMAP
1010
11ff
1128
117e
7d2a
11fe
197e
1148
317e
5292
1054
11ff
1054
3092
0000
0000
ENDCHAR
STARTCHAR ch-280
ENCODING 280
SWIDTH 1000 0
DWIDTH 16 0
BBX 16 16 0 -2
BITMAP
0820
0bff
09dc
7f54
09dc
0888
1bfe
6888
09fc
0fff
08a4
0998
2a87
10c2
0000
0000
ENDCHAR
STARTCHAR ch-281
ENCODING 281
SWIDTH 1000 0
DWIDTH 16 0
BBX 16 16 0 -2
BITMAP
10f8
1110
13fe
7a02
13fe
11ee
1508
19fe
3110
53fe
1222
13fe
3091
171f
0000
0000
ENDCHAR
STARTCHAR ch-283
ENCODING 283
SWIDTH 1000 0
DWIDTH 16 0
BBX 16 16 0 -2
BITMAP
1010
13ff
1245
7880
110e
11ce
1102
19fe
3124
51b4
1124
11b5
5123
21b1
0000
0000
ENDCHAR
STARTCHAR ch-284
ENCODING 284
SWIDTH 1000 0
DWIDTH 16 0
BBX 16 16 0 -2
BITMAP
1222
13fe
1090
7dfc
1310
15fc
11fc
3110
51fe
17ff
1489
15fd
1489
34fa
0000
0000
ENDCHAR
STARTCHAR ch-285
ENCODING 285
SWIDTH 1000 0
DWIDTH 16 0
BBX 16 16 0 -2
BITMAP
11fe
1084
10fc
78fc
1084
13ff
1804
13ff
314a
51ce
11ce
114a
13de
3042
0000
0000
ENDCHAR
STARTCHAR ch-288
ENCODING 288
SWIDTH 1000 0
DWIDTH 16 0
BBX 16 16 0 -2
BITMAP
1010
13ff
1244
13ef
7a44
12ee
1345
1228
1bef
7228
13ef
1228
55ef
2048
0000
0000
ENDCHAR
STARTCHAR ch-289
ENCODING 289
SWIDTH 1000 0
DWIDTH 16 0
BBX 16 16 0 -2
BITMAP
1088
1ffa
156a
7cbf
156a
17ea
190f
17ea
352a
556f
17ea
142a
542f
2468
0000
0000
ENDCHAR
STARTCHAR ch-290
ENCODING 290
SWIDTH 1000 0
DWIDTH 16 0
BBX 16 16 0 -2
BITMAP
1514
17df
1924
7fdf
128a
1cd3
13fe
3202
53fa
13fa
1202
13fe
3104
1202
0000
0000
ENDCHAR
STARTCHAR ch-291
ENCODING 291
SWIDTH 1000 0
DWIDTH 16 0
BBX 16 16 0 -2
BITMAP
1084
27e9
4812
73fc
2409
7fff
03e0
5635
57f5
07e0
1ffc
7fff
0080
0380
0000
0000
ENDCHAR
STARTCHAR ch-292
ENCODING 292
SWIDTH 1000 0
DWIDTH 16 0
BBX 16 16 0 -2
BITMAP
1240
17e4
124a
7bdf
108a
17ea
1caf
17ea
308a
57ea
108f
17ea
124a
342f
0000
0000
ENDCHAR
STARTCHAR ch-293
ENCODING 293
SWIDTH 1000 0
DWIDTH 16 0
BBX 16 16 0 -2
BITMAP
11ef
1294
107c
7c44
107c
107c
107c
1410
18fe
7054
10ba
1115
507c
2092
0000
0000
ENDCHAR
STARTCHAR ch-294
ENCODING 294
SWIDTH 1000 0
DWIDTH 16 0
BBX 16 16 0 -2
BITMAP
13ff
1000
13cf
134d
7aeb
13ff
1a48
13ff
3249
53ff
1284
12e7
1494
30f7
0000
0000
ENDCHAR
STARTCHAR ch-297
ENCODING 297
SWIDTH 1000 0
DWIDTH 16 0
BBX 16 16 0 -2
BITMAP
0892
09ff
0901
7d7d
0844
0c7c
08fe
18ba
28fe
4810
08fe
0810
09ff
1929
0000
0000
ENDCHAR
STARTCHAR ch-298
ENCODING 298
SWIDTH 1000 0
DWIDTH 16 0
BBX 16 16 0 -2
BITMAP
08d6
0922
09d6
0952
7da6
0952
0bff
0efd
18fc
28fc
4884
08fd
0849
198f
0000
0000
ENDCHAR
STARTCHAR ch-299
ENCODING 299
SWIDTH 1000 0
DWIDTH 16 0
BBX 16 16 0 -2
BITMAP
13de
135a
1252
7bde
10a0
11fe
1b20
15fc
3120
51fe
11fc
1048
5030
23cf
0000
0000
ENDCHAR
STARTCHAR ch-300
ENCODING 300
SWIDTH 1000 0
DWIDTH 16 0
BBX 16 16 0 -2
BITMAP
17c8
150f
17d2
145f
7fd3
1515
17df
19fc
11fc
31fc
5104
11fd
1089
330f
0000
0000
ENDCHAR
STARTCHAR ch-301
ENCODING 301
SWIDTH 1000 0
DWIDTH 16 0
BBX 16 16 0 -2
BITMAP
103c
1048
10f0
1010
7dff
105a
10ac
185c
30aa
53ef
12ab
13ef
5082
23ef
0000
0000
ENDCHAR
STARTCHAR ch-302
ENCODING 302
SWIDTH 1000 0
DWIDTH 16 0
BBX 16 16 0 -2
BITMAP
1010
11ff
10fe
1092
7cfe
11ff
11ef
14aa
18ee
70fe
1028
11ff
50ca
2067
0000
0000
ENDCHAR
STARTCHAR ch-303
ENCODING 303
SWIDTH 1000 0
DWIDTH 16 0
BBX 16 16 0 -2
BITMAP
0080
0082
7fff
0080
0ff8
0410
0410
0220
0140
0080
0140
0630
180f
6002
0000
0000
ENDCHAR
STARTCHAR ch-306
ENCODING 306
SWIDTH 1000 0
DWIDTH 16 0
BBX 16 16 0 -2
BITMAP
0408
3f88
047f
0a08
1108
7f88
013e
3d22
2522
2522
3d14
0108
0514
0263
0000
0000
ENDCHAR
STARTCHAR ch-307
ENCODING 307
SWIDTH 1000 0
DWIDTH 16 0
BBX 16 16 0 -2
BITMAP
087e
0802
08ff
3e02
087e
08f7
3e25
22f7
2202
14ff
0822
1406
2200
41ff
0000
0000
ENDCHAR
STARTCHAR ch-310
ENCODING 310
SWIDTH 1000 0
DWIDTH 16 0
BBX 16 16 0 -2
BITMAP
0440
0440
4442
447f
4484
44c4
4544
4c28
5428
6410
0428
0444
0487
0702
0000
0000
ENDCHAR
STARTCHAR ch-311
ENCODING 311
SWIDTH 1000 0
DWIDTH 16 0
BBX 16 16 0 -2
BITMAP
0010
7f22
207f
2082
2002
3f22
0122
0122
0114
0108
0114
2222
1441
0981
0000
0000
ENDCHAR
STARTCHAR ch-312
ENCODING 312
SWIDTH 1000 0
DWIDTH 16 0
BBX 16 16 0 -2
BITMAP
0440
0440
0842
0a7f
1a84
2ac4
4b44
0a44
0a28
0a10
0a28
0848
0887
0b02
0000
0000
ENDCHAR
STARTCHAR ch-313
ENCODING 313
SWIDTH 1000 0
DWIDTH 16 0
BBX 16 16 0 -2
BITMAP
0040
7e40
0240
0242
027f
7ec4
4144
4244
4028
4010
4428
5844
6087
0302
0000
0000
ENDCHAR
STARTCHAR ch-315
ENCODING 315
SWIDTH 1000 0
DWIDTH 16 0
BBX 16 16 0 -2
BITMAP
0040
0440
7e84
08fe
0908
0a08
0888
0890
0860
0e20
7850
2088
0107
0602
0000
0000
ENDCHAR
STARTCHAR ch-317
ENCODING 317
SWIDTH 1000 0
DWIDTH 16 0
BBX 16 16 0 -2
BITMAP
1408
2210
4120
007f
7f02
1122
1122
1122
1114
1108
2114
4122
0a41
0481
0000
0000
ENDCHAR
STARTCHAR ch-318
ENCODING 318
SWIDTH 1000 0
DWIDTH 16 0
BBX 16 16 0 -2
BITMAP
1020
0820
0042
7fff
1004
1244
1f44
1228
1228
1210
2228
2244
4a82
0501
0000
0000
ENDCHAR
STARTCHAR ch-319
ENCODING 319
SWIDTH 1000 0
DWIDTH 16 0
BBX 16 16 0 -2
BITMAP
0020
7f20
087f
0844
0884
2f44
2844
2828
2810
2f28
7828
2044
0087
0102
0000
0000
ENDCHAR
STARTCHAR ch-321
ENCODING 321
SWIDTH 1000 0
DWIDTH 16 0
BBX 16 16 0 -2
BITMAP
1008
1008
1008
1f0f
1008
1008
103e
7e22
4222
4214
4208
4214
7e22
4241
0000
0000
ENDCHAR
STARTCHAR ch-323
ENCODING 323
SWIDTH 1000 0
DWIDTH 16 0
BBX 16 16 0 -2
BITMAP
0010
7f20
417f
4100
7f02
4402
4422
7f22
4414
4408
4414
5522
6341
4141
0000
0000
ENDCHAR
STARTCHAR ch-325
ENCODING 325
SWIDTH 1000 0
DWIDTH 16 0
BBX 16 16 0 -2
BITMAP
0820
0820
0822
7f7f
0884
0944
3e44
2244
2228
2210
2210
3e28
2247
0182
0000
0000
ENDCHAR
STARTCHAR ch-326
ENCODING 326
SWIDTH 1000 0
DWIDTH 16 0
BBX 16 16 0 -2
BITMAP
0808
1408
220e
4108
0008
3e7f
0041
3e41
2222
2214
2208
2214
3e22
22c1
0000
0000
ENDCHAR
STARTCHAR ch-328
ENCODING 328
SWIDTH 1000 0
DWIDTH 16 0
BBX 16 16 0 -2
BITMAP
0810
0410
7f90
123f
1142
20a2
4222
1224
1214
1208
0c14
0c14
1223
60c2
0000
0000
ENDCHAR
STARTCHAR ch-329
ENCODING 329
SWIDTH 1000 0
DWIDTH 16 0
BBX 16 16 0 -2
BITMAP
0820
4a20
2a22
2c7f
0884
7f44
1844
1c44
2a28
2a28
4810
0848
0887
0902
0000
0000
ENDCHAR
STARTCHAR ch-330
ENCODING 330
SWIDTH 1000 0
DWIDTH 16 0
BBX 16 16 0 -2
BITMAP
0808
0808
0f0e
0808
0808
7fbe
0822
2a22
2a22
2a14
4908
0814
0822
18c1
0000
0000
ENDCHAR
STARTCHAR ch-335
ENCODING 335
SWIDTH 1000 0
DWIDTH 16 0
BBX 16 16 0 -2
BITMAP
0810
1fd0
1010
3fbf
54c2
12a2
7fe4
1494
2294
2088
3fd4
0094
0523
0242
0000
0000
ENDCHAR
STARTCHAR ch-337
ENCODING 337
SWIDTH 1000 0
DWIDTH 16 0
BBX 16 16 0 -2
BITMAP
0a20
0920
0822
7f7f
4a44
2a84
0c44
1828
2a28
4910
0828
0844
2887
1102
0000
0000
ENDCHAR
STARTCHAR ch-339
ENCODING 339
SWIDTH 1000 0
DWIDTH 16 0
BBX 16 16 0 -2
BITMAP
1208
2110
40bf
3f42
2102
2112
2112
3f12
1212
1212
120a
1204
224a
43d1
0000
0000
ENDCHAR
STARTCHAR ch-340
ENCODING 340
SWIDTH 1000 0
DWIDTH 16 0
BBX 16 16 0 -2
BITMAP
0088
7fd0
083f
3f42
0902
0912
7fd2
0012
3f12
2112
210c
210c
3f12
2121
0000
0000
ENDCHAR
STARTCHAR ch-341
ENCODING 341
SWIDTH 1000 0
DWIDTH 16 0
BBX 16 16 0 -2
BITMAP
0420
0422
7fbf
0424
3fc4
24a4
3fa4
24a8
0e28
1590
24a8
4444
0487
0502
0000
0000
ENDCHAR
STARTCHAR ch-342
ENCODING 342
SWIDTH 1000 0
DWIDTH 16 0
BBX 16 16 0 -2
BITMAP
0420
0422
3f3f
0444
1e84
0424
7fa4
0824
0f28
0928
1110
1128
2644
4087
0000
0000
ENDCHAR
STARTCHAR ch-343
ENCODING 343
SWIDTH 1000 0
DWIDTH 16 0
BBX 16 16 0 -2
BITMAP
3e20
2222
227f
3e44
2284
2244
3e44
2228
2228
3e10
2a30
1448
2287
4102
0000
0000
ENDCHAR
STARTCHAR ch-344
ENCODING 344
SWIDTH 1000 0
DWIDTH 16 0
BBX 16 16 0 -2
BITMAP
0410
0a30
0920
107f
2fc2
4442
0424
3f24
1618
1518
2528
0444
1487
0902
0000
0000
ENDCHAR
STARTCHAR ch-345
ENCODING 345
SWIDTH 1000 0
DWIDTH 16 0
BBX 16 16 0 -2
BITMAP
0450
3f90
04a0
053f
7fc4
0844
1f44
2228
4428
0410
3f28
0424
1447
0982
0000
0000
ENDCHAR
STARTCHAR ch-348
ENCODING 348
SWIDTH 1000 0
DWIDTH 16 0
BBX 16 16 0 -2
BITMAP
0410
0a10
111f
24a2
0202
0022
3fa2
0122
0222
0022
2a94
2a48
4894
0fa3
0000
0000
ENDCHAR
STARTCHAR ch-349
ENCODING 349
SWIDTH 1000 0
DWIDTH 16 0
BBX 16 16 0 -2
BITMAP
0810
4910
2b10
083f
7f42
4922
5d22
5d14
6b14
4908
4914
4924
4943
4a82
0000
0000
ENDCHAR
STARTCHAR ch-350
ENCODING 350
SWIDTH 1000 0
DWIDTH 16 0
BBX 16 16 0 -2
BITMAP
4910
2910
2a10
083f
7f42
4122
5d24
5514
5514
5508
5d14
4122
4541
4241
0000
0000
ENDCHAR
STARTCHAR ch-354
ENCODING 354
SWIDTH 1000 0
DWIDTH 16 0
BBX 16 16 0 -2
BITMAP
0020
3f20
0422
7fbf
1244
1ec4
1328
1e28
1210
1228
7f28
0244
0287
0302
0000
0000
ENDCHAR
STARTCHAR ch-355
ENCODING 355
SWIDTH 1000 0
DWIDTH 16 0
BBX 16 16 0 -2
BITMAP
1220
3f20
1242
127f
7f84
0144
3fc4
2144
3f28
2128
3f10
2128
254e
2284
0000
0000
ENDCHAR
STARTCHAR ch-356
ENCODING 356
SWIDTH 1000 0
DWIDTH 16 0
BBX 16 16 0 -2
BITMAP
3f84
2484
2484
3f87
2484
2484
3f9f
0411
7fd1
0411
150a
2484
444a
0411
0000
0000
ENDCHAR
STARTCHAR ch-357
ENCODING 357
SWIDTH 1000 0
DWIDTH 16 0
BBX 16 16 0 -2
BITMAP
0808
4908
4908
2a08
080f
1408
6308
087f
4941
4941
2a41
0841
147f
6341
0000
0000
ENDCHAR
STARTCHAR ch-358
ENCODING 358
SWIDTH 1000 0
DWIDTH 16 0
BBX 16 16 0 -2
BITMAP
0820
7f22
003f
3e42
2202
3e22
0022
3e22
0414
0408
7f88
0414
1422
0841
0000
0000
ENDCHAR
STARTCHAR ch-359
ENCODING 359
SWIDTH 1000 0
DWIDTH 16 0
BBX 16 16 0 -2
BITMAP
0408
7f88
040e
0a08
1108
7fbe
0102
3d22
2522
2522
3d14
0108
0514
0262
0000
0000
ENDCHAR
STARTCHAR ch-360
ENCODING 360
SWIDTH 1000 0
DWIDTH 16 0
BBX 16 16 0 -2
BITMAP
0410
0410
3fbf
1102
1102
0a22
7fe2
0022
3fa2
2094
2088
2088
3f94
20a3
0000
0000
ENDCHAR
STARTCHAR ch-362
ENCODING 362
SWIDTH 1000 0
DWIDTH 16 0
BBX 16 16 0 -2
BITMAP
39c4
0844
2947
1084
2944
463f
0011
39d1
0851
2951
294a
1084
294a
4631
0000
0000
ENDCHAR
STARTCHAR ch-364
ENCODING 364
SWIDTH 1000 0
DWIDTH 16 0
BBX 16 16 0 -2
BITMAP
0910
7fd0
0910
103f
1fc2
20a2
5ea2
12a4
1294
1288
1e94
1094
02a3
0142
0000
0000
ENDCHAR
STARTCHAR ch-367
ENCODING 367
SWIDTH 1000 0
DWIDTH 16 0
BBX 16 16 0 -2
BITMAP
7f88
4088
7f8e
4408
7f88
443e
52a2
61a2
0022
3fa2
2094
3f88
2094
3fa2
0000
0000
ENDCHAR
STARTCHAR ch-370
ENCODING 370
SWIDTH 1000 0
DWIDTH 16 0
BBX 16 16 0 -2
BITMAP
0408
7fc8
000f
1f08
1108
1f7e
0002
3fa2
2e94
2a94
2e88
2094
22a7
2142
0000
0000
ENDCHAR
STARTCHAR ch-371
ENCODING 371
SWIDTH 1000 0
DWIDTH 16 0
BBX 16 16 0 -2
BITMAP
0410
4450
7fdf
0022
7fc2
0012
3f92
2092
3f92
0012
208a
1104
0a0a
7fd1
0000
0000
ENDCHAR
STARTCHAR ch-372
ENCODING 372
SWIDTH 1000 0
DWIDTH 16 0
BBX 16 16 0 -2
BITMAP
0420
7fe0
043f
3fa4
24e4
3f94
1608
2516
1ffc
0080
0480
04f8
0482
7fff
0000
0000
ENDCHAR
STARTCHAR ch-373
ENCODING 373
SWIDTH 1000 0
DWIDTH 16 0
BBX 16 16 0 -2
BITMAP
0820
7f20
223f
2242
7f02
4912
4912
7f12
4914
5d08
5514
5d22
4141
4281
0000
0000
ENDCHAR
STARTCHAR ch-374
ENCODING 374
SWIDTH 1000 0
DWIDTH 16 0
BBX 16 16 0 -2
BITMAP
7884
4be8
509f
63e2
52a2
4be2
4aaa
4bea
688a
51ca
42aa
4084
408a
4091
0000
0000
ENDCHAR
STARTCHAR ch-375
ENCODING 375
SWIDTH 1000 0
DWIDTH 16 0
BBX 16 16 0 -2
BITMAP
0510
7fd0
3fa0
24bf
3fc2
24a2
3fa2
2494
0414
7fc8
0f14
1112
1123
2640
0000
0000
ENDCHAR
STARTCHAR ch-376
ENCODING 376
SWIDTH 1000 0
DWIDTH 16 0
BBX 16 16 0 -2
BITMAP
0410
3f10
2510
7fbf
2562
3f22
7fa2
4894
7f94
1014
7f08
2208
1c14
7763
0000
0000
ENDCHAR
STARTCHAR ch-377
ENCODING 377
SWIDTH 1000 0
DWIDTH 16 0
BBX 16 16 0 -2
BITMAP
0408
0710
043f
7fc2
4042
3f12
2492
1512
7fd2
1512
248c
444c
0c12
0421
0000
0000
ENDCHAR
STARTCHAR ch-378
ENCODING 378
SWIDTH 1000 0
DWIDTH 16 0
BBX 16 16 0 -2
BITMAP
7fc4
4004
4f87
4884
4f84
401f
5dd1
5551
5551
5551
5dca
4004
7fca
0011
0000
0000
ENDCHAR
STARTCHAR ch-379
ENCODING 379
SWIDTH 1000 0
DWIDTH 16 0
BBX 16 16 0 -2
BITMAP
07e0
0840
1ff8
0948
0a28
07f0
07d0
05f0
0410
07f0
03e0
0540
0880
3f7e
0000
0000
ENDCHAR
STARTCHAR ch-380
ENCODING 380
SWIDTH 1000 0
DWIDTH 16 0
BBX 16 16 0 -2
BITMAP
0404
7fc4
0404
3f87
0004
3f84
209f
3f91
1111
7fd1
110a
3f84
208a
3f91
0000
0000
ENDCHAR
STARTCHAR ch-383
ENCODING 383
SWIDTH 1000 0
DWIDTH 16 0
BBX 16 16 0 -2
BITMAP
3f90
0410
7fdf
1122
3f82
5142
1f12
0012
7fd2
4052
5f52
514c
5f4c
40d3
0000
0000
ENDCHAR
STARTCHAR ch-384
ENCODING 384
SWIDTH 1000 0
DWIDTH 16 0
BBX 16 16 0 -2
BITMAP
3f88
2a88
2a8e
3f88
1008
1f88
28be
7ea2
2aa2
3ea2
0994
7f88
0094
0363
0000
0000
ENDCHAR
STARTCHAR ch-385
ENCODING 385
SWIDTH 1000 0
DWIDTH 16 0
BBX 16 16 0 -2
BITMAP
7fc8
6ac8
7fd0
041f
3fa2
0412
7fd2
1112
3f92
0412
7fcc
040c
0412
0421
0000
0000
ENDCHAR
STARTCHAR ch-386
ENCODING 386
SWIDTH 1000 0
DWIDTH 16 0
BBX 16 16 0 -2
BITMAP
0408
0a08
1108
2088
5f4f
0012
3b82
2a92
2a92
3b8a
1104
2a8a
4451
4451
0000
0000
ENDCHAR
STARTCHAR ch-387
ENCODING 387
SWIDTH 1000 0
DWIDTH 16 0
BBX 16 16 0 -2
BITMAP
4920
2a3f
7f44
49a8
5d10
6b28
4147
0000
7fff
0420
0fa4
1528
0231
7c3f
0000
0000
ENDCHAR
STARTCHAR ch-388
ENCODING 388
SWIDTH 1000 0
DWIDTH 16 0
BBX 16 16 0 -2
BITMAP
0420
1f3e
0454
3f88
1514
24a3
3ffe
2040
2ffe
2448
2a54
20e0
2150
464c
0000
0000
ENDCHAR
STARTCHAR ch-391
ENCODING 391
SWIDTH 1000 0
DWIDTH 16 0
BBX 16 16 0 -2
BITMAP
0100
0082
7fff
0808
0410
0210
0220
0140
0080
0140
0230
0408
1807
6002
0000
0000
ENDCHAR
STARTCHAR ch-396
ENCODING 396
SWIDTH 1000 0
DWIDTH 16 0
BBX 16 16 0 -2
BITMAP
1008
08ea
0009
7e08
05ff
2408
1428
14a8
08b8
14a8
12a4
60b5
01c3
0001
0000
0000
ENDCHAR
STARTCHAR ch-400
ENCODING 400
SWIDTH 1000 0
DWIDTH 16 0
BBX 16 16 0 -2
BITMAP
0140
3f7e
0140
1f7c
0140
3f7e
0140
0080
7fff
0220
0140
01c0
0630
380e
0000
0000
ENDCHAR
STARTCHAR ch-401
ENCODING 401
SWIDTH 1000 0
DWIDTH 16 0
BBX 16 16 0 -2
BITMAP
0102
7cbf
1008
17e8
1008
1448
1248
795e
1088
1148
1128
1e28
7208
247f
0000
0000
ENDCHAR
STARTCHAR ch-402
ENCODING 402
SWIDTH 1000 0
DWIDTH 16 0
BBX 16 16 0 -2
BITMAP
1002
10fc
1080
10fe
7c82
08fe
0880
48ff
48a5
49a5
2aff
10a5
28a5
4483
0000
0000
ENDCHAR
STARTCHAR ch-404
ENCODING 404
SWIDTH 1000 0
DWIDTH 16 0
BBX 16 16 0 -2
BITMAP
0808
7f28
224b
1449
0849
146b
6349
0849
7f7f
4908
7f08
0814
0922
7f41
0000
0000
ENDCHAR
STARTCHAR ch-405
ENCODING 405
SWIDTH 1000 0
DWIDTH 16 0
BBX 16 16 0 -2
BITMAP
11ef
1129
11ef
1129
7fef
0111
09ff
4911
49ff
49db
29ff
1155
2993
4511
0000
0000
ENDCHAR
STARTCHAR ch-406
ENCODING 406
SWIDTH 1000 0
DWIDTH 16 0
BBX 16 16 0 -2
BITMAP
0080
7fff
0220
01c0
3e3e
13e0
3a2e
23e2
3aae
7fff
4ff9
0fe8
0fe8
3ffe
0000
0000
ENDCHAR
STARTCHAR ch-407
ENCODING 407
SWIDTH 1000 0
DWIDTH 16 0
BBX 16 16 0 -2
BITMAP
0420
0320
0120
0820
0620
0220
0022
003f
7fe0
0020
0020
0020
0020
0020
0000
0000
ENDCHAR
STARTCHAR ch-409
ENCODING 409
SWIDTH 1000 0
DWIDTH 16 0
BBX 16 16 0 -2
BITMAP
0404
2484
1524
1614
7f84
0424
0c14
0e04
157f
1504
2404
4404
0404
0404
0000
0000
ENDCHAR
STARTCHAR ch-411
ENCODING 411
SWIDTH 1000 0
DWIDTH 16 0
BBX 16 16 0 -2
BITMAP
0848
0f28
1228
3f48
5528
1528
1f08
15ff
1508
1f08
1108
2108
2108
4308
0000
0000
ENDCHAR
STARTCHAR ch-412
ENCODING 412
SWIDTH 1000 0
DWIDTH 16 0
BBX 16 16 0 -2
BITMAP
0404
0a24
1114
2094
5f24
0414
3f84
047f
1504
1484
2484
4404
1404
0804
0000
0000
ENDCHAR
STARTCHAR ch-413
ENCODING 413
SWIDTH 1000 0
DWIDTH 16 0
BBX 16 16 0 -2
BITMAP
1f7c
1144
1144
1f7c
0000
7fff
4001
4421
0220
0420
0220
1ffe
0020
0020
0000
0000
ENDCHAR
STARTCHAR ch-414
ENCODING 414
SWIDTH 1000 0
DWIDTH 16 0
BBX 16 16 0 -2
BITMAP
0402
1582
2492
248a
3582
2492
248a
3f82
2482
043f
0402
0a02
1102
60c2
0000
0000
ENDCHAR
STARTCHAR ch-415
ENCODING 415
SWIDTH 1000 0
DWIDTH 16 0
BBX 16 16 0 -2
BITMAP
1104
3fa4
1114
1f14
1144
1f24
1124
1104
7fc7
2a7c
2a04
3304
2004
3f84
0000
0000
ENDCHAR
STARTCHAR ch-416
ENCODING 416
SWIDTH 1000 0
DWIDTH 16 0
BBX 16 16 0 -2
BITMAP
1102
3f82
1112
3f8a
1102
7fd2
040a
3f82
249f
3f82
2482
7fc2
2082
2082
0000
0000
ENDCHAR
STARTCHAR ch-417
ENCODING 417
SWIDTH 1000 0
DWIDTH 16 0
BBX 16 16 0 -2
BITMAP
0810
7f28
0828
3e44
2283
3f4a
2228
3e88
0848
7f0f
08f8
0808
0808
0808
0000
0000
ENDCHAR
STARTCHAR ch-418
ENCODING 418
SWIDTH 1000 0
DWIDTH 16 0
BBX 16 16 0 -2
BITMAP
1102
7fc2
1112
1f0a
0002
7fd2
000a
3f82
2482
3fbf
2482
3f82
1102
60c2
0000
0000
ENDCHAR
STARTCHAR ch-420
ENCODING 420
SWIDTH 1000 0
DWIDTH 16 0
BBX 16 16 0 -2
BITMAP
0008
001c
0fe0
0800
0802
0fff
0820
0820
0820
0820
1020
1020
2020
0020
0000
0000
ENDCHAR
STARTCHAR ch-421
ENCODING 421
SWIDTH 1000 0
DWIDTH 16 0
BBX 16 16 0 -2
BITMAP
003c
1fc0
1000
1004
1ffe
1040
1040
11c0
1070
1058
2048
2040
4040
0040
0000
0000
ENDCHAR
STARTCHAR ch-423
ENCODING 423
SWIDTH 1000 0
DWIDTH 16 0
BBX 16 16 0 -2
BITMAP
0220
0410
1a2c
01c0
0630
180f
6072
0f80
0808
0ffc
0840
1040
2040
0040
0000
0000
ENDCHAR
STARTCHAR ch-424
ENCODING 424
SWIDTH 1000 0
DWIDTH 16 0
BBX 16 16 0 -2
BITMAP
2201
22fe
2240
2240
3e7f
0244
0244
7e44
2244
2244
2244
4284
0204
0204
0000
0000
ENDCHAR
STARTCHAR ch-426
ENCODING 426
SWIDTH 1000 0
DWIDTH 16 0
BBX 16 16 0 -2
BITMAP
2001
2002
3f3c
2120
4120
013f
7d24
4524
4524
7d24
4524
0144
0904
0604
0000
0000
ENDCHAR
STARTCHAR ch-427
ENCODING 427
SWIDTH 1000 0
DWIDTH 16 0
BBX 16 16 0 -2
BITMAP
0204
7f0e
08f0
0880
1080
1eff
3288
5288
1288
1288
1e88
1088
0108
0208
0000
0000
ENDCHAR
STARTCHAR ch-428
ENCODING 428
SWIDTH 1000 0
DWIDTH 16 0
BBX 16 16 0 -2
BITMAP
0401
041e
7fd0
0410
3f90
249f
3f92
2492
3f92
0412
7fd2
0422
0402
0402
0000
0000
ENDCHAR
STARTCHAR ch-430
ENCODING 430
SWIDTH 1000 0
DWIDTH 16 0
BBX 16 16 0 -2
BITMAP
1403
147c
7f40
1440
147f
7f44
0044
3e44
2244
3e44
2244
2244
3e84
2204
0000
0000
ENDCHAR
STARTCHAR ch-431
ENCODING 431
SWIDTH 1000 0
DWIDTH 16 0
BBX 16 16 0 -2
BITMAP
1104
110e
3fb0
1120
1f20
113f
1f24
1124
1124
7fa4
0044
0a44
1184
2104
0000
0000
ENDCHAR
STARTCHAR ch-432
ENCODING 432
SWIDTH 1000 0
DWIDTH 16 0
BBX 16 16 0 -2
BITMAP
0800
0406
3fb8
1120
0a20
7fbf
0424
3fa4
0524
14a4
2444
4444
1484
0804
0000
0000
ENDCHAR
STARTCHAR ch-434
ENCODING 434
SWIDTH 1000 0
DWIDTH 16 0
BBX 16 16 0 -2
BITMAP
7bc1
4a5e
4a50
7bd0
0a10
0a1f
7bd2
4052
4052
7bd2
0a12
0a22
7fc2
0002
0000
0000
ENDCHAR
STARTCHAR ch-435
ENCODING 435
SWIDTH 1000 0
DWIDTH 16 0
BBX 16 16 0 -2
BITMAP
1101
7fde
1110
1f10
041f
3f92
2492
3f92
0412
3f92
0412
3f92
0422
7fc2
0000
0000
ENDCHAR
STARTCHAR ch-438
ENCODING 438
SWIDTH 1000 0
DWIDTH 16 0
BBX 16 16 0 -2
BITMAP
05fe
794a
21fe
2040
3eff
2521
24fd
24a5
24fd
2429
44fd
0405
0401
040f
0000
0000
ENDCHAR
STARTCHAR ch-439
ENCODING 439
SWIDTH 1000 0
DWIDTH 16 0
BBX 16 16 0 -2
BITMAP
5101
665e
7b90
5550
7ddf
4012
7fd2
5112
6652
7b92
5552
7fe2
4002
7fc2
0000
0000
ENDCHAR
STARTCHAR ch-440
ENCODING 440
SWIDTH 1000 0
DWIDTH 16 0
BBX 16 16 0 -2
BITMAP
3fc1
207e
3fd0
3310
2a9f
3fd2
3552
3fd2
3ff2
3fb2
34b2
5fa2
0422
1fe2
0000
0000
ENDCHAR
STARTCHAR ch-441
ENCODING 441
SWIDTH 1000 0
DWIDTH 16 0
BBX 16 16 0 -2
BITMAP
0200
0180
0080
0002
7fff
0200
0208
03fc
0208
0208
0408
0808
1050
2020
0000
0000
ENDCHAR
STARTCHAR ch-443
ENCODING 443
SWIDTH 1000 0
DWIDTH 16 0
BBX 16 16 0 -2
BITMAP
1010
0810
08ff
7f00
107c
1044
1e44
1244
1244
2244
4245
0245
1485
0907
0000
0000
ENDCHAR
STARTCHAR ch-444
ENCODING 444
SWIDTH 1000 0
DWIDTH 16 0
BBX 16 16 0 -2
BITMAP
0c10
0428
0028
7f44
1044
1083
1e22
1218
1208
1220
2218
220c
4a04
0400
0000
0000
ENDCHAR
STARTCHAR ch-445
ENCODING 445
SWIDTH 1000 0
DWIDTH 16 0
BBX 16 16 0 -2
BITMAP
1040
0842
7f7f
1090
1e92
129f
12f2
1392
129a
1294
1291
2281
4a7f
0400
0000
0000
ENDCHAR
STARTCHAR ch-447
ENCODING 447
SWIDTH 1000 0
DWIDTH 16 0
BBX 16 16 0 -2
BITMAP
2020
1020
087f
7e80
103e
1002
1e04
1208
12ff
1208
2208
4208
0228
0c10
0000
0000
ENDCHAR
STARTCHAR ch-449
ENCODING 449
SWIDTH 1000 0
DWIDTH 16 0
BBX 16 16 0 -2
BITMAP
0100
3ffe
0410
0220
3fff
2101
4082
3ffe
0200
03f8
0208
0408
0850
3020
0000
0000
ENDCHAR
STARTCHAR ch-450
ENCODING 450
SWIDTH 1000 0
DWIDTH 16 0
BBX 16 16 0 -2
BITMAP
1020
0840
04ff
7f00
10fe
1e40
127f
1244
1244
1244
2244
4244
1484
0804
0000
0000
ENDCHAR
STARTCHAR ch-451
ENCODING 451
SWIDTH 1000 0
DWIDTH 16 0
BBX 16 16 0 -2
BITMAP
0c40
0442
00ff
7e80
1104
107e
1e44
1264
1254
13ff
2244
2244
4a94
0508
0000
0000
ENDCHAR
STARTCHAR ch-452
ENCODING 452
SWIDTH 1000 0
DWIDTH 16 0
BBX 16 16 0 -2
BITMAP
1040
047f
0080
7f0c
10f0
1010
1e1e
12f0
1210
121f
13f0
2211
4a11
040f
0000
0000
ENDCHAR
STARTCHAR ch-453
ENCODING 453
SWIDTH 1000 0
DWIDTH 16 0
BBX 16 16 0 -2
BITMAP
1040
0844
7efe
1108
1030
1ec2
12a6
12a8
1290
1288
1288
22a7
4ac2
0480
0000
0000
ENDCHAR
STARTCHAR ch-454
ENCODING 454
SWIDTH 1000 0
DWIDTH 16 0
BBX 16 16 0 -2
BITMAP
0c40
0442
00ff
7e90
1110
10ff
1e10
12fe
1292
1292
2292
2296
4a10
0410
0000
0000
ENDCHAR
STARTCHAR ch-459
ENCODING 459
SWIDTH 1000 0
DWIDTH 16 0
BBX 16 16 0 -2
BITMAP
0842
087f
7f40
1080
117f
1e11
1212
1250
125e
1250
2250
2ab0
4510
020f
0000
0000
ENDCHAR
STARTCHAR ch-460
ENCODING 460
SWIDTH 1000 0
DWIDTH 16 0
BBX 16 16 0 -2
BITMAP
0c40
0442
00ff
7f10
1090
1090
1efe
1310
1210
12fe
2210
2212
4bff
0400
0000
0000
ENDCHAR
STARTCHAR ch-461
ENCODING 461
SWIDTH 1000 0
DWIDTH 16 0
BBX 16 16 0 -2
BITMAP
1040
087f
0098
7e24
1042
1081
1f3c
1200
127e
1202
2204
4228
1410
0808
0000
0000
ENDCHAR
STARTCHAR ch-462
ENCODING 462
SWIDTH 1000 0
DWIDTH 16 0
BBX 16 16 0 -2
BITMAP
0c40
0442
007f
7e80
117e
1e42
127e
1240
1250
125e
2250
2291
4a91
050f
0000
0000
ENDCHAR
STARTCHAR ch-463
ENCODING 463
SWIDTH 1000 0
DWIDTH 16 0
BBX 16 16 0 -2
BITMAP
0c20
0422
003f
7f40
10a0
103e
1e50
1250
1290
13ff
1210
2228
4a47
0482
0000
0000
ENDCHAR
STARTCHAR ch-464
ENCODING 464
SWIDTH 1000 0
DWIDTH 16 0
BBX 16 16 0 -2
BITMAP
1080
08ff
7f00
1028
1028
1eaa
126c
1228
126c
12aa
2228
4228
0249
0c8f
0000
0000
ENDCHAR
STARTCHAR ch-466
ENCODING 466
SWIDTH 1000 0
DWIDTH 16 0
BBX 16 16 0 -2
BITMAP
1040
087f
00a0
7f10
10ff
1020
1e44
12fe
1202
1254
1254
1254
2a94
4513
0000
0000
ENDCHAR
STARTCHAR ch-467
ENCODING 467
SWIDTH 1000 0
DWIDTH 16 0
BBX 16 16 0 -2
BITMAP
0840
047f
0080
7e08
1049
102a
1e7f
1241
127f
1241
127f
2241
4241
0c43
0000
0000
ENDCHAR
STARTCHAR ch-470
ENCODING 470
SWIDTH 1000 0
DWIDTH 16 0
BBX 16 16 0 -2
BITMAP
1040
0c42
04ff
0110
7f7c
1028
1e44
13ff
1204
12f4
1294
22f4
4a04
040c
0000
0000
ENDCHAR
STARTCHAR ch-471
ENCODING 471
SWIDTH 1000 0
DWIDTH 16 0
BBX 16 16 0 -2
BITMAP
1040
087f
7f80
1144
10fe
1e44
127c
1244
127c
1244
13ff
1a44
24c3
4101
0000
0000
ENDCHAR
STARTCHAR ch-474
ENCODING 474
SWIDTH 1000 0
DWIDTH 16 0
BBX 16 16 0 -2
BITMAP
2080
19fe
0200
7dfe
2048
21fe
3d4a
25fe
24fc
2400
25fe
2410
4454
1892
0000
0000
ENDCHAR
STARTCHAR ch-475
ENCODING 475
SWIDTH 1000 0
DWIDTH 16 0
BBX 16 16 0 -2
BITMAP
1040
08ff
7f00
10fe
1e54
13ff
1254
1393
12fe
1292
22fe
4292
02fe
0c82
0000
0000
ENDCHAR
STARTCHAR ch-477
ENCODING 477
SWIDTH 1000 0
DWIDTH 16 0
BBX 16 16 0 -2
BITMAP
1100
11fe
1138
7e44
20ba
2101
3cfe
24d6
24fe
247c
2444
247c
4444
1c7c
0000
0000
ENDCHAR
STARTCHAR ch-478
ENCODING 478
SWIDTH 1000 0
DWIDTH 16 0
BBX 16 16 0 -2
BITMAP
2042
1424
7aff
2008
2790
3969
2a1a
2c6c
2a1a
2969
2908
4930
4a80
1c7f
0000
0000
ENDCHAR
STARTCHAR ch-479
ENCODING 479
SWIDTH 1000 0
DWIDTH 16 0
BBX 16 16 0 -2
BITMAP
2080
10ff
7e80
1156
109a
1cd6
149a
14ce
14aa
1482
25ff
4444
0482
1901
0000
0000
ENDCHAR
STARTCHAR ch-481
ENCODING 481
SWIDTH 1000 0
DWIDTH 16 0
BBX 16 16 0 -2
BITMAP
0008
3ffc
1080
1080
1080
1082
7fff
0080
0140
0240
0441
0841
1041
607f
0000
0000
ENDCHAR
STARTCHAR ch-482
ENCODING 482
SWIDTH 1000 0
DWIDTH 16 0
BBX 16 16 0 -2
BITMAP
7efe
4290
4290
7e90
4292
43ff
7e10
4010
4810
4428
4a28
5049
6189
0607
0000
0000
ENDCHAR
STARTCHAR ch-485
ENCODING 485
SWIDTH 1000 0
DWIDTH 16 0
BBX 16 16 0 -2
BITMAP
0008
1ffc
1008
1008
1008
1008
1ff8
1008
1008
1008
1008
1008
1ff8
1008
0000
0000
ENDCHAR
STARTCHAR ch-486
ENCODING 486
SWIDTH 1000 0
DWIDTH 16 0
BBX 16 16 0 -2
BITMAP
0008
0ffc
0808
0808
0808
0ff8
0808
0808
0808
0ff8
0808
0000
0002
7fff
0000
0000
ENDCHAR
STARTCHAR ch-488
ENCODING 488
SWIDTH 1000 0
DWIDTH 16 0
BBX 16 16 0 -2
BITMAP
1000
1000
1ffc
1000
1000
0ffe
0000
0ff8
0808
0808
0ff8
0808
0808
0ff8
0000
0000
ENDCHAR
STARTCHAR ch-489
ENCODING 489
SWIDTH 1000 0
DWIDTH 16 0
BBX 16 16 0 -2
BITMAP
0008
0ffc
0808
0ff8
0808
0ff8
0888
0082
7fff
0080
0080
0080
0080
0080
0000
0000
ENDCHAR
STARTCHAR ch-492
ENCODING 492
SWIDTH 1000 0
DWIDTH 16 0
BBX 16 16 0 -2
BITMAP
0400
0402
07ff
0802
0822
17f2
4422
07e2
0422
0422
07e2
0002
0014
0008
0000
0000
ENDCHAR
STARTCHAR ch-493
ENCODING 493
SWIDTH 1000 0
DWIDTH 16 0
BBX 16 16 0 -2
BITMAP
0800
0804
087e
7f44
0944
0944
097c
0944
0944
0944
117d
1101
2101
40ff
0000
0000
ENDCHAR
STARTCHAR ch-494
ENCODING 494
SWIDTH 1000 0
DWIDTH 16 0
BBX 16 16 0 -2
BITMAP
0100
0110
3ff8
0210
0211
0411
180f
6ff8
0808
0ff8
0808
0808
0ff8
0808
0000
0000
ENDCHAR
STARTCHAR ch-495
ENCODING 495
SWIDTH 1000 0
DWIDTH 16 0
BBX 16 16 0 -2
BITMAP
0008
0ffc
0808
0ff8
0808
0ff8
0100
0110
3ff8
0210
0211
0211
0c11
700f
0000
0000
ENDCHAR
STARTCHAR ch-496
ENCODING 496
SWIDTH 1000 0
DWIDTH 16 0
BBX 16 16 0 -2
BITMAP
0004
7cfe
4410
4410
4410
7c12
45ff
4410
4410
7c10
4410
0010
0010
0010
0000
0000
ENDCHAR
STARTCHAR ch-497
ENCODING 497
SWIDTH 1000 0
DWIDTH 16 0
BBX 16 16 0 -2
BITMAP
0ff8
0808
0ff8
0808
0ff8
0000
1ffc
0080
0082
7fff
0080
0080
0080
0080
0000
0000
ENDCHAR
STARTCHAR ch-498
ENCODING 498
SWIDTH 1000 0
DWIDTH 16 0
BBX 16 16 0 -2
BITMAP
1ffc
1004
1ffc
1004
1ffc
0080
0080
3ffe
0080
0140
0220
0410
0808
7007
0000
0000
ENDCHAR
STARTCHAR ch-499
ENCODING 499
SWIDTH 1000 0
DWIDTH 16 0
BBX 16 16 0 -2
BITMAP
0040
0040
7c7f
4481
4501
4441
7c21
4411
4401
4401
7c01
4401
0012
000c
0000
0000
ENDCHAR
STARTCHAR ch-500
ENCODING 500
SWIDTH 1000 0
DWIDTH 16 0
BBX 16 16 0 -2
BITMAP
00fe
0010
7c10
4410
4410
45ff
7c10
4410
4410
4410
7c10
4490
0050
0020
0000
0000
ENDCHAR
STARTCHAR ch-501
ENCODING 501
SWIDTH 1000 0
DWIDTH 16 0
BBX 16 16 0 -2
BITMAP
1ffc
1004
1ffc
1004
1ffc
1004
0080
0080
2082
2082
2082
2082
3ffe
2002
0000
0000
ENDCHAR
STARTCHAR ch-506
ENCODING 506
SWIDTH 1000 0
DWIDTH 16 0
BBX 16 16 0 -2
BITMAP
0002
7dff
4410
4410
4410
4410
7c12
45ff
4410
4410
4410
7c10
4412
03ff
0000
0000
ENDCHAR
STARTCHAR ch-507
ENCODING 507
SWIDTH 1000 0
DWIDTH 16 0
BBX 16 16 0 -2
BITMAP
1ffc
1004
1ffc
1004
1ffc
0080
7fff
0410
0220
0140
0080
0140
0220
7c1f
0000
0000
ENDCHAR
STARTCHAR ch-508
ENCODING 508
SWIDTH 1000 0
DWIDTH 16 0
BBX 16 16 0 -2
BITMAP
0020
0012
7dff
4444
4444
4444
7c44
4444
4428
4410
7c28
4444
0082
0101
0000
0000
ENDCHAR
STARTCHAR ch-509
ENCODING 509
SWIDTH 1000 0
DWIDTH 16 0
BBX 16 16 0 -2
BITMAP
0020
0020
03fe
7c20
4524
4524
7d24
4524
45fc
4420
7c20
4421
0021
003f
0000
0000
ENDCHAR
ENDFONT
